<?xml version="1.0" standalone="no"?>
<!DOCTYPE svg PUBLIC "-//W3C//DTD SVG 20010904//EN"
 "http://www.w3.org/TR/2001/REC-SVG-20010904/DTD/svg10.dtd">
<svg version="1.0" xmlns="http://www.w3.org/2000/svg"
 width="800.000000pt" height="800.000000pt" viewBox="0 0 800.000000 800.000000"
 preserveAspectRatio="xMidYMid meet">

<g transform="translate(0.000000,800.000000) scale(0.100000,-0.100000)"
fill="#000000" stroke="none">
<path d="M0 4000 l0 -4000 4000 0 4000 0 0 4000 0 4000 -4000 0 -4000 0 0
-4000z m5460 3376 c0 -17 -14 -29 -23 -20 -8 8 3 34 14 34 5 0 9 -6 9 -14z
m-3625 -76 c-3 -5 -10 -10 -16 -10 -5 0 -9 5 -9 10 0 6 7 10 16 10 8 0 12 -4
9 -10z m3265 -50 c0 -5 -6 -10 -14 -10 -8 0 -18 5 -21 10 -3 6 3 10 14 10 12
0 21 -4 21 -10z m1225 -50 c3 -5 1 -10 -4 -10 -6 0 -11 5 -11 10 0 6 2 10 4
10 3 0 8 -4 11 -10z m-3970 -18 c-3 -3 -11 0 -18 7 -9 10 -8 11 6 5 10 -3 15
-9 12 -12z m4525 -56 c0 -3 -4 -8 -10 -11 -5 -3 -10 -1 -10 4 0 6 5 11 10 11
6 0 10 -2 10 -4z m-4525 -56 c-17 -19 -17 -20 0 -20 10 0 16 -3 13 -6 -3 -3
-32 0 -64 7 -45 9 -69 9 -101 0 -77 -21 -133 -90 -119 -146 5 -21 12 -26 33
-23 33 4 41 -17 13 -32 -17 -9 -19 -14 -9 -26 8 -10 8 -14 0 -14 -6 0 -14 7
-16 15 -15 49 -15 49 -27 37 -17 -17 -33 -15 -18 3 7 8 10 27 7 41 -11 57 38
122 110 148 53 19 81 21 120 12 24 -6 37 -3 49 8 23 23 30 20 9 -4z m2692 -52
c-3 -7 -5 -2 -5 12 0 14 2 19 5 13 2 -7 2 -19 0 -25z m-2454 7 c4 -8 2 -17 -3
-20 -6 -4 -10 3 -10 14 0 25 6 27 13 6z m2611 -13 c2 -4 -5 -9 -17 -9 -17 -2
-19 0 -7 7 18 12 18 12 24 2z m-2574 -12 c0 -5 -4 -10 -10 -10 -5 0 -10 5 -10
10 0 6 5 10 10 10 6 0 10 -4 10 -10z m2124 -20 c-10 -9 -30 -13 -53 -11 -11 1
-10 5 4 21 14 15 22 17 37 9 11 -6 16 -15 12 -19z m247 -4 c-7 -8 -10 -20 -6
-26 9 -14 -45 -9 -61 5 -14 12 14 35 33 28 7 -3 16 2 19 12 5 11 10 13 17 6 7
-7 6 -15 -2 -25z m-3108 6 c-18 -2 -33 -7 -33 -12 0 -7 -19 -8 -62 -1 -5 0 -8
5 -8 10 0 13 35 17 90 11 40 -4 41 -5 13 -8z m669 6 c-13 -13 -17 -42 -4 -34
4 2 9 -6 10 -19 2 -24 -14 -43 -26 -30 -3 3 0 11 8 16 12 8 10 9 -6 4 -26 -7
-100 -75 -96 -88 1 -5 -7 -11 -18 -14 -24 -6 -26 -21 -5 -30 19 -7 24 -2 30
27 6 29 26 50 32 34 2 -7 13 -10 23 -7 11 3 17 10 13 16 -4 6 -1 7 7 2 7 -4
16 -2 20 5 6 9 13 9 28 1 11 -6 30 -11 41 -11 25 0 59 -31 53 -48 -2 -7 4 -24
13 -38 20 -31 14 -40 -15 -24 -25 13 -29 11 -35 -19 -2 -12 -16 -36 -30 -52
-25 -30 -26 -49 -2 -49 7 0 6 4 -3 10 -21 14 5 13 30 0 17 -9 19 -8 13 7 -6
17 -5 17 14 1 11 -10 25 -18 31 -18 7 0 12 -4 12 -10 0 -6 -71 -10 -194 -10
-107 0 -197 -4 -200 -9 -4 -5 -1 -11 6 -13 8 -3 6 -7 -5 -11 -9 -3 -16 -3 -16
1 5 30 -4 32 -115 32 l-113 0 5 -25 c6 -31 -10 -33 -23 -2 -7 16 -18 22 -42
22 -18 0 -33 -3 -33 -6 0 -3 -10 -4 -23 -2 -14 3 -29 -2 -36 -11 -11 -12 -11
-16 -1 -16 10 0 10 -3 0 -15 -7 -9 -20 -13 -29 -10 -13 4 -12 2 2 -9 9 -7 17
-18 17 -25 0 -6 4 -11 10 -11 5 0 7 -7 4 -15 -4 -8 -10 -15 -16 -15 -5 0 -6 4
-3 10 3 5 -10 17 -29 27 -34 16 -36 16 -55 -8 -16 -18 -20 -39 -21 -86 0 -38
4 -63 11 -63 5 0 7 -4 4 -10 -3 -6 13 -9 42 -7 41 2 50 6 60 28 15 32 47 62
37 35 -3 -9 -2 -16 4 -16 14 0 23 28 11 36 -7 4 -6 10 0 18 6 7 8 16 4 20 -4
4 1 4 10 0 13 -4 15 -10 8 -17 -5 -5 -7 -23 -4 -40 6 -29 5 -30 -23 -24 -25 5
-31 1 -44 -26 -14 -30 -19 -32 -72 -35 l-58 -3 0 -74 c0 -41 -4 -76 -8 -79 -5
-3 -7 -20 -6 -38 2 -21 -1 -16 -8 15 -5 26 -14 47 -19 47 -4 0 -6 9 -4 20 2
11 -3 26 -11 34 -16 17 -19 42 -5 51 11 6 4 80 -9 105 -5 10 -7 20 -3 23 3 4
0 14 -8 23 -11 14 -11 18 3 28 9 7 20 24 23 39 4 15 11 24 16 21 13 -8 11 10
-3 24 -7 7 -8 12 -2 12 12 0 12 29 0 48 -6 9 -2 11 16 7 18 -4 26 1 40 25 15
27 48 42 48 22 0 -12 44 -9 57 4 7 7 26 11 43 9 36 -5 37 1 5 45 -29 40 -32
49 -7 28 9 -9 24 -13 32 -11 13 4 13 3 0 -6 -12 -8 -12 -13 4 -30 11 -12 25
-21 31 -21 7 0 15 -7 19 -15 10 -28 256 -3 256 27 0 3 -5 8 -12 10 -6 2 3 10
21 18 28 11 34 11 42 -1 8 -11 13 -9 30 14 11 15 25 25 30 21 5 -3 9 0 9 6 0
6 4 9 9 6 5 -4 7 3 4 15 -7 27 -31 35 -56 20 -17 -11 -21 -10 -28 2 -5 9 -17
13 -28 10 -10 -3 -22 0 -26 7 -11 17 5 27 16 10 7 -12 8 -10 6 7 -2 12 -6 25
-10 29 -10 11 2 24 23 24 10 0 20 -6 23 -12 4 -10 7 -10 18 0 9 9 10 12 1 12
-21 0 -13 16 13 28 14 7 37 12 50 12 25 0 46 19 23 21 -7 0 5 7 27 15 22 8 44
19 49 24 6 6 21 10 35 10 19 0 22 -3 13 -12z m-586 -13 c16 -12 16 -14 3 -15
-9 0 -22 7 -29 15 -16 19 0 19 26 0z m3078 -16 c-2 -4 4 -12 13 -18 23 -12 17
-17 -29 -25 -24 -4 -38 -3 -38 4 0 5 8 10 18 10 29 0 32 10 14 38 -16 24 -16
24 5 11 12 -7 20 -16 17 -20z m-3064 -19 c0 -5 -2 -10 -4 -10 -3 0 -8 5 -11
10 -3 6 -1 10 4 10 6 0 11 -4 11 -10z m607 -12 c-3 -8 -6 -5 -6 6 -1 11 2 17
5 13 3 -3 4 -12 1 -19z m1889 1 c12 -20 -17 -85 -46 -102 -37 -22 -38 -22 -42
16 -5 51 66 121 88 86z m749 -9 c3 -5 1 -10 -4 -10 -6 0 -11 5 -11 10 0 6 2
10 4 10 3 0 8 -4 11 -10z m-2565 -4 c0 -11 -19 -15 -25 -6 -3 5 1 10 9 10 9 0
16 -2 16 -4z m181 -19 c-1 -12 -15 -9 -19 4 -3 6 1 10 8 8 6 -3 11 -8 11 -12z
m2222 -24 c16 -41 15 -48 -6 -40 -22 8 -48 65 -33 71 21 8 24 6 39 -31z m461
9 c3 -5 -1 -9 -9 -9 -8 0 -12 4 -9 9 3 4 7 8 9 8 2 0 6 -4 9 -8z m-129 -12
c-3 -5 -11 -10 -16 -10 -6 0 -7 5 -4 10 3 6 11 10 16 10 6 0 7 -4 4 -10z m445
-21 c0 -6 -4 -7 -10 -4 -5 3 -10 11 -10 16 0 6 5 7 10 4 6 -3 10 -11 10 -16z
m-3580 7 c0 -3 -4 -8 -10 -11 -5 -3 -10 -1 -10 4 0 6 5 11 10 11 6 0 10 -2 10
-4z m884 -8 c-5 -9 -2 -8 9 1 22 18 26 14 29 -36 2 -23 6 -39 11 -36 4 2 7 -3
7 -11 0 -8 -16 -23 -35 -32 -34 -16 -37 -16 -50 2 -17 23 -19 44 -4 44 6 0 8
7 5 16 -3 8 1 26 10 40 16 24 32 35 18 12z m1494 -22 c10 -19 19 -26 30 -21
10 4 22 7 27 8 6 1 13 6 17 12 8 11 15 6 18 -15 5 -36 -1 -48 -29 -53 -32 -7
-52 -48 -23 -46 27 1 99 27 79 28 -10 1 -15 6 -12 11 4 6 11 8 16 4 6 -3 16 2
23 12 9 12 15 14 20 6 4 -7 3 -12 -2 -12 -6 0 -8 -9 -5 -20 5 -21 32 -24 45
-5 4 5 10 6 14 2 4 -4 0 -15 -9 -25 -14 -15 -35 -18 -144 -19 -70 0 -120 2
-110 4 22 6 22 11 -5 37 -21 19 -33 66 -18 66 4 0 5 11 3 24 -4 18 0 25 14 29
28 7 37 3 51 -27z m-2623 14 c-11 -5 -27 -9 -35 -9 -9 0 -8 4 5 9 11 5 27 9
35 9 9 0 8 -4 -5 -9z m148 -9 c-4 -16 -8 -17 -18 -8 -15 14 -10 27 10 27 8 0
11 -7 8 -19z m-123 -11 c0 -5 -4 -10 -10 -10 -5 0 -10 5 -10 10 0 6 5 10 10
10 6 0 10 -4 10 -10z m173 -10 c3 -11 1 -20 -4 -20 -5 0 -9 9 -9 20 0 11 2 20
4 20 2 0 6 -9 9 -20z m2782 10 c3 -5 1 -10 -4 -10 -6 0 -11 5 -11 10 0 6 2 10
4 10 3 0 8 -4 11 -10z m-1525 -9 c0 -5 -9 -7 -20 -4 -11 3 -20 7 -20 9 0 2 9
4 20 4 11 0 20 -4 20 -9z m1500 -9 c14 -6 21 -11 15 -12 -5 0 -3 -5 5 -10 13
-9 13 -11 0 -20 -8 -5 -10 -10 -5 -10 6 -1 0 -5 -13 -11 -24 -9 -62 3 -62 21
0 5 -15 17 -32 27 l-33 17 25 6 c33 9 69 6 100 -8z m859 8 c13 -6 17 -17 14
-35 l-5 -25 -19 24 c-30 38 -25 55 10 36z m-3539 -20 c0 -5 -2 -10 -4 -10 -3
0 -8 5 -11 10 -3 6 -1 10 4 10 6 0 11 -4 11 -10z m1605 0 c3 -5 1 -10 -4 -10
-6 0 -11 5 -11 10 0 6 2 10 4 10 3 0 8 -4 11 -10z m608 -50 c3 -11 18 -25 34
-31 l28 -12 -25 -7 -25 -7 28 -11 c15 -6 27 -17 27 -23 0 -6 6 -9 14 -6 10 4
14 -1 13 -14 -1 -17 -7 -20 -29 -17 -15 3 -28 2 -28 -1 0 -12 -184 1 -197 14
-17 18 -17 40 2 55 16 13 21 55 5 45 -5 -3 -5 7 1 25 13 36 24 38 33 8 6 -22
7 -22 27 9 l20 32 33 -20 c19 -11 36 -28 39 -39z m1388 37 c-10 -9 -11 -8 -5
6 3 10 9 15 12 12 3 -3 0 -11 -7 -18z m-1043 -6 c3 -8 -1 -12 -9 -9 -7 2 -15
10 -17 17 -3 8 1 12 9 9 7 -2 15 -10 17 -17z m392 -1 c0 -5 -2 -10 -4 -10 -3
0 -8 5 -11 10 -3 6 -1 10 4 10 6 0 11 -4 11 -10z m-1975 -15 c35 -12 36 -14
13 -15 -32 0 -58 9 -58 21 0 11 -3 12 45 -6z m2674 1 c10 -12 8 -13 -8 -9 -12
3 -21 9 -21 14 0 14 16 11 29 -5z m91 -27 c0 -6 14 -27 30 -46 17 -19 28 -38
25 -43 -4 -6 2 -7 11 -3 13 5 16 3 11 -10 -4 -10 -2 -17 4 -17 7 0 9 11 7 25
-4 17 -1 25 8 25 8 0 14 -9 14 -20 0 -11 4 -20 9 -20 5 0 21 -16 37 -37 26
-34 26 -36 6 -31 -25 7 -30 -7 -6 -16 10 -4 13 -13 9 -26 -3 -11 -2 -20 3 -20
5 0 12 -9 15 -21 3 -12 10 -18 16 -15 5 4 13 0 18 -7 4 -7 16 -16 26 -20 34
-13 20 -52 -39 -106 -30 -28 -61 -51 -68 -51 -7 0 -23 -12 -37 -27 l-24 -27
27 17 c15 9 35 17 45 17 9 0 26 11 38 26 35 44 145 52 129 9 -3 -8 1 -24 10
-37 20 -29 20 -57 0 -87 -15 -21 -15 -23 5 -38 16 -11 19 -18 11 -28 -14 -17
-2 -45 19 -45 9 0 22 -9 29 -20 8 -13 8 -20 1 -20 -5 0 -8 -4 -5 -9 3 -5 14
-7 24 -4 11 2 19 -1 20 -9 12 -91 20 -128 31 -141 7 -9 15 -51 17 -94 8 -135
12 -167 21 -170 6 -2 5 -22 -2 -51 l-12 -47 -64 -1 c-35 0 -75 -4 -88 -8 -24
-8 -24 -9 -5 -23 18 -14 18 -14 -6 -8 -22 5 -27 1 -39 -27 -8 -18 -14 -42 -13
-53 2 -17 0 -18 -9 -5 -9 12 -10 11 -6 -5 2 -11 -2 -26 -9 -33 -20 -18 -26
-15 -18 11 6 21 6 21 -13 -3 -17 -20 -18 -26 -7 -38 19 -19 17 -29 -6 -42 -11
-6 -20 -17 -20 -25 0 -18 -4 -18 -53 -4 -33 9 -42 7 -70 -12 -29 -20 -30 -21
-14 -3 9 11 17 25 17 30 0 5 9 15 20 22 21 13 27 42 9 42 -6 0 -13 -9 -16 -19
-3 -12 -15 -21 -32 -23 -21 -2 -25 -8 -23 -25 3 -25 -7 -30 -25 -12 -6 6 -19
12 -29 13 -24 4 -28 20 -10 38 22 23 -9 43 -66 43 -36 0 -52 -6 -68 -23 -11
-12 -25 -22 -30 -22 -14 0 -24 22 -13 29 6 3 14 20 17 38 4 18 18 40 32 50 13
10 27 32 30 50 5 26 2 33 -17 43 -19 11 -24 10 -35 -5 -8 -10 -12 -21 -9 -25
2 -3 -7 -19 -21 -36 -29 -33 -28 -25 5 66 25 67 26 98 5 128 -18 26 -12 72 11
72 25 0 26 19 4 50 -26 35 -40 28 -46 -22 -3 -31 -20 -51 -34 -42 -13 7 -20
-28 -8 -42 15 -19 -14 -47 -50 -48 -24 -1 -27 1 -17 17 12 20 26 23 26 5 0 -6
2 -9 5 -6 3 3 3 13 -1 22 -10 26 -42 19 -59 -14 -16 -32 -50 -51 -88 -49 -15
0 -10 5 18 15 55 20 58 25 47 82 -6 36 -6 53 2 56 23 11 -51 -8 -99 -24 -50
-18 -52 -20 -40 -52 6 -14 2 -18 -14 -18 -12 0 -25 9 -29 20 -7 19 -8 19 -57
-5 -51 -25 -152 -51 -162 -42 -3 3 14 11 37 18 23 7 44 19 47 26 3 7 15 13 27
13 11 0 48 13 81 28 33 16 72 32 87 35 15 4 40 12 55 18 26 9 26 11 10 21 -13
7 -17 17 -13 33 5 21 4 22 -37 13 -23 -5 -62 -11 -87 -13 l-45 -5 50 16 c28 9
57 22 66 31 11 9 18 10 21 3 5 -16 78 17 78 35 0 17 9 19 29 6 18 -12 63 8 57
25 -3 7 2 10 13 7 11 -3 17 2 18 16 1 12 -3 21 -9 21 -6 0 -8 11 -6 25 4 17 0
29 -10 34 -14 8 -14 12 -3 25 12 14 10 15 -19 9 -25 -4 -35 -2 -42 10 -5 10
-14 17 -20 17 -6 0 -25 16 -43 35 -28 29 -35 32 -45 20 -7 -8 -24 -15 -37 -15
-20 0 -24 4 -18 18 15 37 11 47 -20 46 -16 0 -36 6 -43 13 -7 7 -20 13 -28 13
-8 0 -14 7 -14 15 0 8 -7 15 -15 15 -8 0 -15 5 -15 10 0 18 -84 11 -110 -10
-27 -21 -89 -26 -121 -10 -10 6 -19 7 -19 3 0 -5 -10 -14 -21 -22 -20 -12 -21
-11 -15 4 9 24 -37 65 -74 65 -16 0 -31 4 -35 10 -6 10 -51 -6 -73 -27 -6 -6
-38 -17 -70 -24 -31 -6 -66 -18 -77 -25 -11 -8 -27 -14 -36 -14 -9 0 -22 -7
-29 -15 -11 -13 -8 -15 13 -15 14 0 29 5 32 10 4 6 11 8 16 4 27 -16 62 -10
92 17 32 30 73 39 74 17 1 -29 9 -43 28 -52 19 -8 19 -8 -3 -19 -18 -8 -25 -8
-32 2 -6 10 -9 10 -15 1 -9 -15 11 -29 35 -23 10 3 21 0 25 -7 7 -12 -14 -44
-23 -35 -3 3 -17 -14 -31 -38 -14 -24 -36 -54 -48 -67 -13 -13 -23 -28 -23
-32 0 -5 -6 -3 -14 4 -7 7 -12 18 -9 24 2 7 -7 10 -24 8 -15 -1 -28 -3 -28 -4
0 -2 -11 -4 -25 -6 -75 -9 -109 -17 -103 -27 4 -6 0 -8 -10 -4 -11 4 -19 -3
-26 -25 -6 -17 -8 -35 -4 -41 4 -6 1 -7 -6 -3 -7 5 -10 14 -7 22 3 8 0 11 -10
7 -8 -3 -14 -10 -13 -17 1 -6 1 -18 0 -26 -1 -13 -2 -13 -11 0 -6 10 -10 11
-10 3 0 -7 -8 -13 -17 -12 -11 0 -13 3 -5 6 20 8 14 23 -14 33 -22 9 -25 15
-20 38 3 15 3 21 0 14 -3 -6 -10 -10 -15 -6 -5 3 -9 -6 -9 -20 0 -19 -7 -27
-25 -32 -31 -8 -32 -19 -1 -39 15 -10 22 -22 19 -34 -3 -14 3 -21 26 -29 29
-10 35 -20 32 -49 -1 -6 3 -14 9 -18 15 -9 12 -25 -4 -25 -9 0 -12 -8 -8 -25
2 -14 11 -25 18 -25 16 0 10 -44 -9 -67 -12 -16 3 -16 24 0 20 16 34 47 38 85
0 6 6 12 12 12 15 0 49 39 49 57 0 7 7 13 15 13 8 0 15 7 15 15 0 8 9 15 20
15 11 0 20 -7 20 -15 0 -8 -5 -15 -11 -15 -5 0 -7 -4 -4 -10 8 -13 45 -13 45
1 0 5 5 7 10 4 6 -3 10 1 10 9 0 9 6 13 14 10 8 -3 17 -1 21 5 10 17 43 13 48
-6 3 -16 5 -16 13 3 8 18 12 19 34 7 14 -7 20 -13 13 -13 -6 0 -9 -9 -6 -21 4
-12 0 -25 -8 -30 -22 -14 -33 -10 -19 6 11 13 8 15 -19 15 -17 0 -31 -5 -31
-11 0 -6 -7 -9 -15 -5 -8 3 -15 1 -15 -4 0 -8 -38 -5 -66 4 -16 6 -5 -42 11
-48 7 -2 16 2 19 9 3 8 12 12 21 9 8 -4 21 -1 29 5 15 13 86 -12 86 -30 0 -6
9 -8 20 -4 24 8 26 -1 5 -22 -9 -8 -22 -12 -30 -9 -17 6 -30 -10 -15 -19 16
-10 12 -35 -5 -29 -10 4 -15 0 -15 -11 0 -9 5 -13 11 -9 8 5 8 1 0 -14 -27
-50 -7 -52 22 -2 17 30 31 60 29 67 -1 6 11 11 33 11 40 0 47 -13 10 -22 -13
-3 -30 -16 -36 -29 -7 -12 -15 -24 -19 -27 -23 -16 -50 -100 -32 -100 4 0 15
-14 24 -30 12 -22 22 -28 34 -23 14 5 16 3 11 -11 -5 -13 0 -18 24 -23 16 -3
34 -13 38 -22 5 -9 41 -32 80 -50 39 -19 69 -36 67 -39 -2 -2 -38 13 -80 32
-42 20 -83 36 -91 36 -8 0 -15 3 -15 8 0 4 -23 27 -51 51 -31 27 -47 36 -40
23 6 -11 15 -23 20 -26 4 -3 8 -15 7 -27 -1 -17 -12 -26 -43 -37 -27 -8 -43
-20 -44 -30 -2 -35 3 -67 13 -73 6 -4 8 -14 5 -23 -4 -9 -1 -16 6 -16 7 -1 28
-14 47 -31 33 -29 34 -30 9 -24 -24 6 -27 4 -31 -29 -3 -27 0 -36 14 -39 16
-5 16 -7 1 -37 -9 -18 -24 -41 -34 -51 -15 -15 -19 -34 -19 -89 0 -59 3 -72
22 -90 12 -11 28 -18 35 -16 15 6 18 -10 3 -19 -5 -3 -10 -18 -9 -33 0 -27 0
-27 10 -4 7 19 11 21 23 10 8 -8 10 -15 4 -19 -5 -3 -8 -10 -6 -15 1 -4 -12
-11 -30 -15 -38 -8 -35 -5 -55 -44 l-16 -30 -1 31 c0 48 -11 94 -23 94 -5 0
-8 -16 -4 -38 2 -21 0 -46 -5 -55 -6 -11 -5 -17 1 -17 6 0 8 -7 4 -16 -3 -9 0
-20 7 -24 10 -6 11 -12 3 -22 -12 -15 -16 -207 -4 -223 5 -5 8 -25 8 -44 0
-21 6 -39 18 -47 15 -11 16 -16 5 -29 -10 -12 -16 -13 -26 -4 -11 9 -14 6 -15
-17 -2 -30 -4 -60 -7 -82 -1 -7 -7 -10 -13 -6 -9 5 -10 -1 -4 -22 4 -16 8 -37
9 -46 0 -10 4 -18 9 -18 5 0 4 -7 -3 -15 -10 -12 -10 -15 4 -15 19 0 21 -16 3
-23 -8 -3 -11 -19 -9 -46 2 -22 8 -39 12 -36 5 3 16 -2 25 -11 12 -13 13 -19
4 -31 -7 -7 -18 -12 -26 -9 -10 4 -13 -15 -13 -93 0 -55 -3 -107 -7 -117 -5
-13 -3 -15 8 -9 11 6 12 5 2 -6 -7 -7 -13 -21 -13 -32 0 -12 4 -16 13 -11 9 5
9 3 -1 -7 -11 -12 -14 -12 -22 1 -7 11 -10 8 -10 -15 0 -17 6 -37 13 -44 7 -9
7 -11 1 -8 -8 5 -12 -9 -11 -46 1 -29 -2 -58 -6 -64 -4 -7 -3 -42 3 -79 6 -36
9 -69 6 -71 -2 -2 0 -18 4 -34 5 -18 5 -27 -1 -24 -5 4 -9 -1 -9 -10 0 -10 5
-14 13 -10 6 4 4 0 -6 -8 -17 -14 -17 -18 -3 -49 9 -18 23 -43 32 -56 10 -13
12 -22 5 -22 -6 0 -11 5 -11 12 0 30 -12 -6 -16 -46 -4 -41 -2 -48 18 -56 17
-6 19 -9 6 -9 -19 -1 -34 -43 -23 -61 4 -7 16 -10 26 -7 24 6 25 -5 1 -19 -10
-6 -19 -24 -20 -40 -2 -16 -4 -37 -5 -48 -1 -12 5 -20 17 -22 22 -3 37 -23 30
-39 -3 -5 3 1 13 15 10 13 28 33 40 44 17 14 20 23 12 32 -8 9 -5 11 11 7 17
-5 20 -12 18 -49 -3 -39 -5 -43 -26 -37 -24 6 -55 -11 -96 -52 -29 -29 -33
-53 -11 -61 8 -4 13 -10 10 -14 -3 -5 15 -34 41 -65 28 -35 38 -52 25 -45 -12
6 -21 15 -21 19 0 5 -11 19 -25 32 -13 13 -25 30 -25 37 0 6 -4 12 -10 12 -5
0 -10 -8 -10 -17 0 -15 -2 -14 -14 3 -13 17 -15 14 -13 -38 2 -44 5 -54 15
-46 9 8 12 6 12 -6 0 -9 6 -16 14 -16 8 0 12 9 11 25 -4 30 15 33 39 6 20 -22
14 -61 -16 -104 l-20 -28 24 -23 c12 -13 35 -31 50 -41 15 -9 26 -21 23 -25
-8 -13 -42 -18 -56 -8 -11 8 -10 8 4 4 11 -3 16 -2 12 4 -3 6 -14 10 -24 10
-10 0 -25 9 -32 20 -10 14 -18 17 -29 11 -12 -8 -8 -15 18 -40 17 -17 26 -31
19 -31 -8 0 -8 -3 2 -9 8 -5 29 -9 48 -9 35 0 63 -16 50 -28 -10 -10 -88 17
-108 37 -16 16 -82 21 -72 6 3 -5 14 -7 24 -4 11 3 19 1 19 -4 0 -5 -6 -9 -14
-9 -14 0 -26 -21 -26 -44 0 -7 18 -20 39 -29 22 -10 42 -24 45 -33 9 -22 -62
-87 -88 -80 -12 3 -29 -1 -39 -8 -15 -12 -11 -14 34 -14 28 0 55 -5 58 -11 4
-7 15 -9 24 -5 12 4 17 1 17 -10 0 -9 5 -16 11 -16 6 0 8 -8 4 -19 -5 -15 -2
-18 13 -15 21 6 42 72 42 133 0 26 7 44 21 57 13 11 19 27 16 41 -2 12 -1 20
4 18 4 -3 13 11 19 30 6 19 16 35 21 35 5 0 4 -12 -2 -27 -8 -21 -7 -28 6 -35
8 -5 15 -18 15 -28 0 -11 5 -20 12 -20 6 0 8 -3 5 -7 -4 -3 -15 1 -26 11 -17
16 -20 15 -42 -3 -15 -13 -19 -20 -10 -21 12 0 11 -3 -1 -17 -22 -24 -28 -111
-9 -108 8 1 15 10 17 19 4 25 13 31 26 18 8 -8 8 -12 1 -12 -11 0 -28 -46 -24
-68 2 -10 -2 -10 -18 0 -21 13 -37 6 -26 -11 3 -6 19 -11 36 -11 41 0 36 -15
-15 -45 -70 -41 -76 -58 -10 -28 33 14 61 30 62 35 2 4 10 8 17 8 7 0 16 6 19
13 5 9 7 9 12 0 3 -7 12 -13 19 -13 13 0 17 -8 29 -61 7 -33 -31 -74 -54 -59
-8 5 -19 10 -25 9 -5 0 2 -7 18 -15 15 -8 27 -22 27 -31 0 -13 -2 -13 -16 -2
-15 12 -16 11 -10 -9 5 -13 3 -22 -3 -22 -18 0 -12 -18 8 -29 16 -9 18 -8 14
10 -6 20 -5 20 25 5 33 -17 72 -61 72 -82 0 -7 10 -20 22 -28 21 -15 21 -15 1
-23 -11 -4 -36 -27 -56 -50 -19 -23 -37 -40 -39 -37 -3 2 -21 -11 -42 -30 -67
-64 -145 -54 -189 22 -27 46 -15 50 14 5 29 -44 74 -60 125 -43 21 7 32 16 27
23 -3 7 -3 9 2 5 7 -7 89 53 107 77 14 19 8 98 -9 117 -21 24 -33 23 -33 -3 0
-14 5 -19 13 -16 8 3 14 -1 14 -9 0 -8 -6 -13 -13 -10 -8 3 -16 0 -20 -6 -4
-7 -3 -8 4 -4 7 4 12 2 12 -3 0 -6 -6 -11 -12 -12 -7 0 -23 -2 -36 -5 -17 -3
-22 0 -20 13 2 10 -4 19 -14 21 -13 2 -18 -3 -18 -17 0 -18 -6 -21 -43 -21
-24 0 -47 3 -51 7 -3 4 -32 7 -64 8 -59 1 -113 14 -177 41 -32 13 -35 17 -23
31 12 15 10 16 -20 10 -30 -6 -38 -2 -86 46 -57 55 -80 108 -105 243 -14 76
-15 165 -1 144 8 -13 10 -12 10 3 0 9 6 17 13 17 7 1 5 6 -5 14 -22 16 -23 30
-3 46 12 10 13 16 5 24 -8 8 -15 6 -26 -8 -13 -18 -14 -17 -15 20 -3 206 -3
209 -22 212 -10 2 -24 -4 -31 -14 -12 -16 -14 -15 -20 11 -5 21 -3 31 8 37 9
5 16 14 16 20 0 6 7 19 16 29 9 10 17 29 18 43 0 14 4 26 8 26 6 0 8 190 7
710 0 124 0 232 -1 240 -1 8 0 106 0 218 2 195 3 203 21 197 11 -3 23 0 27 7
4 6 2 14 -4 16 -7 2 -9 9 -6 15 5 8 2 8 -7 0 -24 -23 -29 -13 -29 62 0 45 4
75 10 75 6 0 13 -6 16 -14 4 -11 11 -12 35 -3 16 6 29 14 29 18 0 17 -32 31
-59 26 l-28 -6 -1 77 c-1 42 -2 212 -3 377 0 189 -5 305 -11 313 -7 8 -7 12 1
12 6 0 11 14 11 30 0 17 -5 30 -11 30 -8 0 -8 4 -1 13 11 13 14 64 13 185 -1
64 -3 72 -20 72 -22 0 -30 16 -23 43 3 14 7 15 18 6 15 -13 15 -13 19 91 4
100 4 100 20 94 8 -4 31 1 51 11 19 9 42 14 50 11 9 -3 14 1 14 13 0 11 6 21
13 24 6 2 -11 2 -40 -1 -39 -3 -56 -1 -68 12 -9 9 -21 14 -26 11 -5 -4 -9 22
-9 60 0 53 3 67 18 72 22 9 36 22 51 51 6 12 18 22 26 22 8 0 15 7 15 16 0 13
-5 12 -26 -5 -33 -26 -42 -26 -65 1 -17 19 -19 39 -19 178 0 86 -3 160 -7 164
-4 4 -6 26 -4 49 2 40 2 41 -13 22 -15 -19 -15 -19 -16 7 0 15 7 31 16 36 10
6 16 25 17 60 l2 52 145 1 c236 2 290 8 290 34 0 21 20 19 46 -6 26 -24 104
-39 104 -19 0 8 6 10 18 5 44 -18 105 -8 124 19 4 6 12 -2 17 -17 9 -22 14
-26 28 -19 10 5 46 6 83 2 39 -5 67 -5 71 1 3 5 18 3 35 -5 16 -8 43 -17 59
-20 71 -12 228 -67 245 -85 3 -4 23 -15 45 -26 57 -28 208 -182 240 -244 14
-29 32 -54 40 -57 23 -9 54 13 48 36 -7 25 8 26 29 1 15 -18 15 -20 0 -34 -9
-8 -26 -19 -37 -25 -13 -7 -20 -21 -20 -40 0 -17 3 -28 6 -26 7 4 27 -68 57
-203 14 -61 26 -87 46 -106 16 -15 23 -28 16 -32 -5 -3 -10 -13 -10 -21 0 -11
14 -14 60 -14 l60 0 0 77 c0 63 2 74 13 61 8 -11 23 -14 49 -11 31 4 37 9 35
27 -2 17 3 21 28 21 17 0 31 -6 31 -12 1 -7 2 -20 3 -28 0 -8 8 -15 17 -15 10
0 14 -6 11 -14 -4 -10 8 -9 54 7 l59 20 -2 43 c-1 40 -4 45 -35 56 -32 12 -41
36 -12 31 8 -2 15 5 16 15 1 9 3 24 5 31 5 24 -33 26 -39 2 -7 -27 -20 -27
-28 0 -4 11 -18 25 -31 31 -13 6 -24 15 -24 20 0 22 -24 -1 -34 -32 -6 -19
-23 -40 -39 -49 -29 -17 -69 -70 -61 -82 2 -4 0 -10 -5 -13 -5 -4 -12 -3 -14
1 -3 5 -8 82 -11 173 -4 91 -9 194 -12 228 -6 61 -7 63 -30 58 -13 -4 -24 -2
-24 3 0 5 11 12 25 15 22 6 25 11 25 55 0 26 -3 76 -7 110 -6 59 -7 62 -30 58
-32 -6 -29 9 3 17 26 7 26 9 21 63 -6 53 -30 98 -48 87 -5 -3 -9 2 -9 10 0 19
5 20 31 5 19 -10 20 -7 17 73 l-3 83 -109 3 c-99 2 -107 1 -92 -13 22 -22 21
-42 -1 -23 -19 16 -112 29 -144 21 -11 -3 -19 -13 -19 -22 0 -10 -3 -12 -8 -5
-8 12 -94 12 -129 0 -19 -6 -25 -3 -33 18 -8 23 -15 26 -56 26 -52 0 -56 8 -6
12 30 2 41 11 25 21 -5 2 -3 3 4 1 6 -1 19 3 29 10 17 13 47 11 69 -4 18 -12
63 -10 92 5 15 8 21 15 13 16 -10 0 -11 2 -2 6 6 2 9 10 5 16 -4 7 0 8 12 3
10 -4 21 -2 25 5 4 6 10 -5 14 -26 8 -41 25 -52 55 -36 16 9 19 9 15 -2 -5
-14 22 -17 42 -5 5 4 16 3 24 -3 20 -12 33 -11 25 1 -3 6 -1 10 4 10 6 0 11
-6 11 -12 0 -10 2 -10 9 0 4 7 14 12 22 10 10 -2 14 7 14 32 0 20 7 43 15 52
17 20 30 23 30 7z m65 -9 c-4 -12 -2 -20 5 -20 6 0 8 -5 4 -11 -10 -16 -26 15
-18 35 9 23 17 20 9 -4z m-4772 -15 c-8 -22 -22 -18 -16 5 3 11 9 17 14 15 4
-3 6 -12 2 -20z m2090 18 c-7 -2 -19 -2 -25 0 -7 3 -2 5 12 5 14 0 19 -2 13
-5z m915 -5 c-2 -6 -10 -14 -16 -16 -7 -2 -10 2 -6 12 7 18 28 22 22 4z
m-1188 -55 c-10 -16 -11 -16 -6 -1 3 9 0 18 -6 20 -7 3 -8 10 -3 17 6 11 10
10 17 -3 6 -10 5 -22 -2 -33z m2760 33 c0 -2 -7 -6 -15 -10 -8 -3 -15 -1 -15
4 0 6 7 10 15 10 8 0 15 -2 15 -4z m-2850 -18 c22 -7 40 -16 40 -20 0 -5 7 -8
15 -8 8 0 15 -7 15 -16 0 -8 5 -12 10 -9 6 4 16 2 23 -3 14 -11 48 -12 62 -2
6 5 34 3 63 -2 40 -8 52 -15 52 -29 0 -16 -8 -19 -52 -20 -29 0 -96 -2 -148
-2 -109 -2 -155 7 -146 28 4 12 -7 15 -64 15 -69 0 -86 10 -52 29 9 6 13 11 9
11 -5 0 -1 7 8 16 9 10 26 14 40 11 14 -2 25 0 25 4 0 13 54 11 100 -3z m3255
-3 c-16 -7 -34 -10 -39 -7 -12 7 21 21 49 20 15 0 13 -3 -10 -13z m-1030 -2
c-11 -3 -31 -13 -45 -23 -39 -26 -60 -31 -83 -18 -21 11 -21 11 -2 19 11 4 37
8 57 8 20 1 40 6 43 11 3 6 16 9 28 9 20 -1 21 -2 2 -6z m370 -3 c3 -5 1 -10
-4 -10 -6 0 -11 5 -11 10 0 6 2 10 4 10 3 0 8 -4 11 -10z m-1327 -33 c3 -22
-1 -27 -17 -27 -12 0 -21 7 -21 15 0 9 6 12 16 8 12 -4 15 -2 12 8 -3 8 -11
13 -17 11 -7 -1 -9 2 -6 8 11 18 30 5 33 -23z m2167 13 c29 -11 42 -19 30 -20
-16 -1 -14 -4 10 -15 38 -18 78 -20 55 -4 -13 9 -13 10 0 5 8 -2 32 -10 53
-17 20 -7 37 -16 37 -20 0 -5 8 -6 18 -3 12 4 13 3 4 -4 -10 -7 -5 -16 21 -38
19 -16 42 -34 53 -41 17 -11 17 -12 2 -12 -10 -1 -18 4 -18 9 0 6 -5 10 -11
10 -7 0 -31 18 -55 40 -36 33 -51 40 -83 40 -22 0 -52 5 -68 12 -15 6 -48 13
-72 14 -61 4 -79 24 -21 24 47 0 46 8 -3 27 -18 6 -25 11 -17 11 8 0 38 -8 65
-18z m-2622 -9 c4 -1 16 -1 28 -1 13 0 18 -4 13 -12 -6 -10 -5 -10 7 -1 11 9
25 10 46 4 33 -10 86 -3 78 10 -3 4 7 5 22 2 41 -8 66 -7 87 2 13 6 23 3 31
-8 15 -21 25 -22 25 -3 0 8 9 13 24 12 19 -1 21 -4 13 -18 -10 -15 -40 -17
-276 -18 -146 -1 -273 -1 -281 -1 -210 2 -251 4 -215 11 22 4 48 10 58 15 9 4
17 3 17 -1 0 -5 40 -9 89 -10 77 0 88 2 84 15 -3 10 -2 12 4 5 13 -17 40 -23
52 -11 6 6 11 8 11 3 0 -4 10 0 22 8 13 10 27 12 37 7 9 -5 19 -9 24 -10z
m267 9 c0 -5 -2 -10 -4 -10 -3 0 -8 5 -11 10 -3 6 -1 10 4 10 6 0 11 -4 11
-10z m1170 0 c0 -5 -4 -10 -10 -10 -5 0 -10 5 -10 10 0 6 5 10 10 10 6 0 10
-4 10 -10z m580 1 c0 -6 -4 -13 -10 -16 -5 -3 -10 1 -10 9 0 9 5 16 10 16 6 0
10 -4 10 -9z m-993 -7 c-3 -3 -12 -4 -19 -1 -8 3 -5 6 6 6 11 1 17 -2 13 -5z
m81 -57 c-11 -21 -11 -21 -30 2 -14 18 -16 27 -7 38 10 11 15 11 30 -3 15 -13
16 -21 7 -37z m-59 27 c2 -2 -22 -3 -55 -3 -47 1 -53 3 -29 9 27 6 73 3 84 -6z
m-132 0 c-3 -3 -12 -4 -19 -1 -8 3 -5 6 6 6 11 1 17 -2 13 -5z m233 -18 c0 -3
-4 -8 -10 -11 -5 -3 -10 -1 -10 4 0 6 5 11 10 11 6 0 10 -2 10 -4z m-524 -31
c-3 -10 1 -15 12 -16 11 0 12 -2 4 -6 -7 -3 -19 -2 -28 1 -12 5 -13 8 -2 20
17 20 22 20 14 1z m2024 0 c43 -22 37 -26 -15 -8 -25 8 -45 17 -45 19 0 9 33
3 60 -11z m-530 -5 c0 -5 -2 -10 -4 -10 -3 0 -8 5 -11 10 -3 6 -1 10 4 10 6 0
11 -4 11 -10z m-830 -20 c0 -5 -4 -10 -10 -10 -5 0 -10 5 -10 10 0 6 5 10 10
10 6 0 10 -4 10 -10z m200 0 c0 -5 -4 -10 -9 -10 -6 0 -13 5 -16 10 -3 6 1 10
9 10 9 0 16 -4 16 -10z m1294 -30 c36 -16 66 -31 66 -34 0 -3 -10 -1 -22 4
-102 41 -141 60 -126 60 9 0 46 -13 82 -30z m-357 -6 c-9 -9 -28 6 -21 18 4 6
10 6 17 -1 6 -6 8 -13 4 -17z m646 -50 c78 -42 94 -55 103 -84 10 -31 9 -35
-10 -45 -32 -17 -86 -26 -86 -15 0 5 -15 17 -32 26 -19 10 -27 19 -20 22 7 2
28 -6 48 -17 44 -26 70 -27 84 -1 17 32 -4 57 -88 99 -42 22 -90 52 -107 66
-22 19 -24 23 -7 13 13 -7 65 -36 115 -64z m-2527 50 c-3 -9 -6 -20 -6 -25 0
-5 -4 -9 -10 -9 -11 0 -14 33 -3 43 12 13 25 7 19 -9z m2584 6 c0 -5 -2 -10
-4 -10 -3 0 -8 5 -11 10 -3 6 -1 10 4 10 6 0 11 -4 11 -10z m-5037 -14 c4 -10
1 -13 -8 -9 -8 3 -12 9 -9 14 7 12 11 11 17 -5z m2637 4 c0 -5 -2 -10 -4 -10
-3 0 -8 5 -11 10 -3 6 -1 10 4 10 6 0 11 -4 11 -10z m880 -9 c0 -4 -3 -11 -7
-14 -8 -9 -34 13 -28 24 6 9 35 1 35 -10z m-3330 -12 c0 -5 -5 -7 -12 -3 -8 5
-9 2 -5 -9 3 -10 2 -17 -3 -17 -11 0 -13 23 -3 33 10 10 23 8 23 -4z m2464
-14 c3 -8 1 -15 -4 -15 -6 0 -10 7 -10 15 0 8 2 15 4 15 2 0 6 -7 10 -15z
m-2024 -16 c0 -6 -4 -7 -10 -4 -5 3 -10 11 -10 16 0 6 5 7 10 4 6 -3 10 -11
10 -16z m-1089 -22 c0 -12 3 -16 6 -9 2 6 9 12 15 12 6 0 8 -7 5 -15 -4 -8 -2
-17 3 -20 6 -4 10 0 10 7 0 7 10 -3 21 -22 12 -19 29 -40 38 -47 9 -7 13 -13
9 -13 -4 0 0 -16 8 -35 13 -31 13 -36 0 -41 -10 -4 -12 -12 -7 -27 5 -13 2
-32 -7 -50 -12 -23 -12 -34 -3 -48 6 -11 7 -19 3 -19 -11 0 -32 44 -33 68 0 9
-3 12 -5 5 -3 -7 -12 -9 -20 -6 -8 3 -14 1 -14 -5 0 -6 -8 -8 -19 -5 -21 5
-18 35 6 55 12 9 17 9 24 -3 8 -10 9 -9 4 8 -3 12 -2 24 3 27 5 3 0 25 -12 48
-35 69 -35 69 -56 58 -18 -10 -19 -8 -10 15 8 21 6 26 -13 36 -32 17 -32 18
-13 32 29 21 56 19 57 -6z m437 4 c-7 -11 -16 -17 -22 -14 -5 3 -1 12 9 20 25
18 27 17 13 -6z m-44 -7 c3 -8 2 -12 -4 -9 -6 3 -10 10 -10 16 0 14 7 11 14
-7z m241 6 c3 -5 12 -7 20 -3 11 4 13 1 9 -11 -3 -9 -10 -16 -15 -16 -5 0 -9
-7 -9 -16 0 -9 -9 -18 -20 -21 -11 -3 -20 -9 -20 -14 0 -5 -7 -9 -15 -9 -8 0
-15 5 -15 11 0 6 -7 9 -15 6 -12 -5 -12 -2 -3 18 6 14 17 25 24 25 7 0 18 9
24 20 12 22 25 26 35 10z m2550 -16 c-9 -9 -18 -14 -21 -11 -9 9 6 27 22 27
13 0 13 -2 -1 -16z m1837 -42 c10 -7 18 -21 18 -31 0 -21 22 -33 44 -25 28 11
54 -81 30 -103 -7 -7 -14 -9 -16 -4 -2 4 -20 6 -40 3 -40 -4 -49 -21 -23 -42
12 -10 16 -9 21 3 3 9 12 13 21 10 12 -5 6 -11 -21 -25 -45 -23 -60 -16 -52
27 5 23 2 34 -8 38 -11 4 -13 24 -10 94 4 103 4 102 11 83 4 -8 14 -21 25 -28z
m-1382 8 c0 -5 -4 -10 -10 -10 -5 0 -10 5 -10 10 0 6 5 10 10 10 6 0 10 -4 10
-10z m1680 -33 c0 -18 2 -55 6 -82 5 -42 3 -53 -12 -65 -16 -14 -16 -13 -4 7
11 17 11 29 2 61 -15 49 -16 126 -2 117 6 -4 10 -21 10 -38z m-5176 -19 c-3
-4 2 -5 10 -2 9 3 16 1 16 -5 0 -6 -7 -11 -15 -11 -16 0 -38 34 -28 44 8 8 23
-15 17 -26z m3295 13 c11 -11 23 -16 27 -13 4 4 4 2 0 -5 -3 -6 -19 -11 -34
-11 -22 1 -28 6 -30 24 -2 29 11 31 37 5z m2051 9 c0 -5 -4 -10 -10 -10 -5 0
-10 5 -10 10 0 6 5 10 10 10 6 0 10 -4 10 -10z m-5280 -4 c0 -3 -4 -8 -10 -11
-5 -3 -10 -1 -10 4 0 6 5 11 10 11 6 0 10 -2 10 -4z m5168 -27 c-2 -6 -8 -10
-13 -10 -5 0 -11 4 -13 10 -2 6 4 11 13 11 9 0 15 -5 13 -11z m-2808 -14 c7
-9 8 -15 2 -15 -5 0 -12 7 -16 15 -3 8 -4 15 -2 15 2 0 9 -7 16 -15z m1150 5
c0 -5 -4 -10 -10 -10 -5 0 -10 5 -10 10 0 6 5 10 10 10 6 0 10 -4 10 -10z
m-3247 -15 c-3 -9 -8 -14 -10 -11 -3 3 -2 9 2 15 9 16 15 13 8 -4z m2137 -15
c0 -5 -4 -10 -10 -10 -5 0 -10 5 -10 10 0 6 5 10 10 10 6 0 10 -4 10 -10z
m-2670 -10 c0 -5 -2 -10 -4 -10 -3 0 -8 5 -11 10 -3 6 -1 10 4 10 6 0 11 -4
11 -10z m220 -5 c0 -8 -4 -15 -10 -15 -5 0 -10 7 -10 15 0 8 5 15 10 15 6 0
10 -7 10 -15z m1469 3 c-3 -29 2 -35 31 -32 16 2 32 -1 35 -6 3 -5 -8 -7 -25
-5 -22 3 -30 0 -30 -12 0 -10 5 -13 17 -9 9 4 20 1 24 -6 7 -10 13 -10 27 -2
12 8 24 9 36 2 25 -14 46 -2 46 26 0 42 36 55 154 55 105 0 106 0 106 -24 0
-13 -6 -26 -12 -28 -10 -4 -10 -8 -2 -14 7 -4 14 -26 17 -48 2 -22 8 -47 12
-56 4 -11 -1 -22 -15 -32 -14 -9 -17 -16 -9 -19 17 -6 13 -149 -5 -163 -7 -5
-11 -15 -9 -21 2 -6 -3 -14 -11 -17 -9 -4 -16 3 -20 19 -4 14 -11 22 -16 19
-6 -4 -7 -11 -4 -17 4 -7 2 -8 -5 -4 -6 4 -17 3 -24 -2 -24 -18 -56 -20 -79
-3 -13 9 -36 17 -53 18 -16 1 -47 5 -67 9 -21 3 -49 3 -63 0 -23 -6 -25 -11
-25 -57 0 -57 -21 -76 -46 -40 -8 11 -21 21 -29 21 -7 0 -18 15 -24 33 -6 18
-20 40 -31 50 -21 17 -27 37 -11 37 5 0 14 -7 21 -15 7 -9 29 -15 51 -15 37 0
38 1 41 38 2 20 7 35 13 32 5 -3 8 -18 6 -34 -2 -25 0 -28 16 -21 10 4 26 7
36 7 9 0 17 3 17 9 0 5 -5 9 -10 9 -6 0 -9 3 -9 8 5 30 -4 42 -37 48 -24 4
-34 11 -30 20 5 13 -10 19 -44 16 -8 -1 -22 1 -30 4 -12 5 -11 8 5 14 19 7 18
8 -7 20 -16 7 -28 19 -28 26 0 15 -31 24 -74 21 -18 -1 -31 4 -34 12 -3 8 0
11 7 7 20 -13 11 3 -16 29 -16 14 -33 23 -40 21 -7 -3 -15 -1 -18 4 -15 24
-22 6 -21 -50 1 -51 -2 -60 -16 -60 -10 0 -18 -6 -19 -12 0 -7 -2 -21 -4 -32
-3 -15 1 -17 26 -12 33 6 39 -8 10 -24 -24 -13 -54 -13 -46 -1 3 5 -28 15 -70
22 -41 7 -75 16 -75 20 0 4 -12 10 -27 13 -67 14 -93 16 -93 7 0 -10 -38 -24
-59 -21 -8 1 -11 -4 -8 -13 3 -8 -6 -21 -24 -31 -16 -9 -29 -24 -29 -32 0 -8
-4 -14 -8 -14 -4 0 -16 -13 -25 -30 -10 -16 -23 -30 -28 -30 -6 0 -7 5 -3 12
4 7 3 8 -4 4 -6 -4 -8 -14 -5 -23 4 -9 2 -14 -3 -11 -9 6 -46 -15 -45 -26 3
-24 -1 -35 -14 -38 -13 -3 -13 -7 -1 -29 12 -23 11 -27 -5 -38 -11 -6 -19 -7
-19 -2 0 5 6 12 13 14 9 4 9 6 0 6 -17 1 -34 -34 -27 -53 4 -9 1 -22 -5 -30
-6 -7 -8 -16 -4 -19 11 -12 51 -8 56 6 3 6 6 2 6 -10 1 -19 4 -20 31 -10 16 6
32 8 35 5 7 -7 -21 -56 -41 -73 -39 -33 -67 -116 -44 -130 7 -4 6 -13 -1 -26
-5 -11 -10 -30 -9 -42 2 -21 2 -25 -1 -44 -1 -5 -10 -19 -20 -32 -10 -13 -16
-27 -13 -32 7 -12 -28 -11 -60 1 -21 8 -26 6 -31 -10 -7 -24 -24 -26 -26 -5
-2 27 -4 30 -27 62 -21 29 -42 36 -58 20 -4 -4 -14 -1 -22 6 -8 6 -28 12 -44
13 -27 1 -29 -1 -23 -25 7 -26 21 -41 41 -41 7 0 14 -7 18 -15 4 -12 0 -14
-20 -9 -25 6 -26 5 -20 -27 l6 -34 -19 40 c-11 22 -20 52 -20 66 -1 31 -26 58
-34 37 -4 -9 -6 -9 -6 -1 -1 6 4 15 9 18 14 9 12 45 -2 46 -10 0 -10 2 0 6 6
2 12 15 12 28 0 18 -4 22 -20 18 -15 -4 -20 0 -20 16 0 11 -5 21 -12 21 -6 0
2 11 18 25 26 22 29 23 35 8 3 -10 15 22 29 77 13 52 36 126 51 163 51 126
145 262 174 250 10 -3 13 0 10 9 -8 20 90 107 164 147 121 64 279 87 619 90
149 1 193 -2 191 -11z m3861 -23 c0 -8 -4 -15 -10 -15 -5 0 -10 7 -10 15 0 8
5 15 10 15 6 0 10 -7 10 -15z m-225 -13 c-3 -3 -11 0 -18 7 -9 10 -8 11 6 5
10 -3 15 -9 12 -12z m-1760 -43 c-4 -5 -13 -9 -22 -9 -13 0 -13 3 -3 15 13 15
35 11 25 -6z m340 -9 c3 -5 1 -10 -4 -10 -6 0 -11 5 -11 10 0 6 2 10 4 10 3 0
8 -4 11 -10z m-3635 -30 c-20 -12 -33 -1 -19 16 9 11 15 12 23 4 8 -8 7 -13
-4 -20z m3327 4 c-3 -3 -12 -4 -19 -1 -8 3 -5 6 6 6 11 1 17 -2 13 -5z m1933
-4 c0 -5 -2 -10 -4 -10 -3 0 -8 5 -11 10 -3 6 -1 10 4 10 6 0 11 -4 11 -10z
m-208 -22 c-6 -6 -15 -8 -19 -4 -4 4 -1 11 7 16 19 12 27 3 12 -12z m-1647 -8
c3 -5 1 -10 -4 -10 -6 0 -11 5 -11 10 0 6 2 10 4 10 3 0 8 -4 11 -10z m955 -4
c0 -3 -4 -8 -10 -11 -5 -3 -10 -1 -10 4 0 6 5 11 10 11 6 0 10 -2 10 -4z
m-4655 -24 c-3 -3 -11 0 -18 7 -9 10 -8 11 6 5 10 -3 15 -9 12 -12z m4019 2
c3 -8 2 -12 -4 -9 -6 3 -10 10 -10 16 0 14 7 11 14 -7z m-2491 -2 c3 7 4 2 3
-12 -4 -32 -30 -33 -34 0 -3 20 -2 22 11 12 12 -10 16 -10 20 0z m-1363 -11
c0 -6 -4 -13 -10 -16 -5 -3 -10 1 -10 9 0 9 5 16 10 16 6 0 10 -4 10 -9z
m1280 -16 c7 -9 8 -15 2 -15 -5 0 -12 7 -16 15 -3 8 -4 15 -2 15 2 0 9 -7 16
-15z m140 5 c0 -5 -5 -10 -11 -10 -5 0 -7 5 -4 10 3 6 8 10 11 10 2 0 4 -4 4
-10z m2050 -20 c0 -5 -7 -7 -15 -4 -8 4 -15 8 -15 10 0 2 7 4 15 4 8 0 15 -4
15 -10z m-61 -11 c-21 -8 -25 -15 -24 -49 1 -27 7 -45 20 -56 18 -14 18 -15 2
-10 -10 3 -25 6 -32 6 -19 0 -28 34 -20 71 7 29 32 48 65 48 8 -1 4 -5 -11
-10z m631 -9 c0 -5 -4 -10 -10 -10 -5 0 -10 5 -10 10 0 6 5 10 10 10 6 0 10
-4 10 -10z m-2505 -18 c-3 -3 -11 0 -18 7 -9 10 -8 11 6 5 10 -3 15 -9 12 -12z
m1965 -18 c0 -3 -7 -1 -15 6 -8 7 -15 17 -15 22 0 5 7 3 15 -6 8 -8 15 -18 15
-22z m2020 15 c0 -5 -4 -9 -10 -9 -5 0 -10 7 -10 16 0 8 5 12 10 9 6 -3 10
-10 10 -16z m-4098 -39 c-2 -22 -6 -40 -8 -40 -2 0 -4 18 -4 40 0 22 3 40 8
40 4 0 6 -18 4 -40z m3983 19 c-8 -12 -45 -12 -45 0 0 10 30 20 43 14 4 -3 5
-9 2 -14z m-5271 -6 c8 -8 -55 -31 -68 -25 -5 3 4 11 20 18 35 15 39 16 48 7z
m2354 -35 c1 -26 -1 -29 -9 -16 -5 9 -6 23 -3 32 9 23 11 20 12 -16z m1028 -5
c-10 -10 -19 5 -10 18 6 11 8 11 12 0 2 -7 1 -15 -2 -18z m515 4 c-10 -9 -11
-8 -5 6 3 10 9 15 12 12 3 -3 0 -11 -7 -18z m-4123 -7 c4 -12 3 -13 -10 -3 -8
7 -18 10 -21 6 -4 -3 -7 -1 -7 6 0 17 32 10 38 -9z m252 13 c0 -5 -17 -17 -37
-28 -35 -19 -61 -53 -32 -42 8 2 13 10 12 16 -3 11 1 12 51 15 l28 2 -7 -146
c-3 -80 -8 -153 -11 -162 -3 -9 -17 -18 -31 -20 -26 -3 -26 -4 -9 -21 31 -30
12 -28 -39 4 -42 27 -49 29 -57 15 -17 -30 -40 -19 -36 17 2 27 7 32 26 29 19
-2 23 2 20 20 -2 13 -9 24 -15 24 -7 1 -17 2 -22 3 -5 0 -12 15 -16 32 -4 17
-9 28 -13 25 -3 -3 -11 -1 -19 5 -16 14 -16 13 -4 -28 11 -39 5 -47 -23 -28
-11 8 -24 15 -28 15 -12 0 -10 -48 2 -55 6 -3 10 -22 10 -40 0 -26 3 -33 15
-29 22 9 18 -9 -5 -24 -17 -10 -21 -10 -24 0 -2 7 -9 32 -15 56 -7 23 -18 42
-25 42 -8 0 -12 15 -12 48 0 33 -10 71 -36 131 -21 47 -35 87 -33 89 3 3 21
-30 40 -74 20 -43 43 -92 51 -109 14 -29 14 -29 13 -5 -1 14 -1 38 -1 53 2 25
4 27 24 16 18 -10 20 -9 15 5 -4 9 2 21 16 31 12 8 18 15 13 15 -5 0 1 9 14
20 13 11 29 20 37 20 7 0 13 5 13 10 0 6 -5 10 -10 10 -6 0 -2 10 10 22 20 21
20 21 34 2 14 -18 15 -18 58 3 47 24 58 27 58 16z m2483 -8 c-3 -9 -8 -14 -10
-11 -3 3 -2 9 2 15 9 16 15 13 8 -4z m-1279 -21 c9 -24 7 -28 -9 -14 -17 14
-20 30 -6 30 5 0 12 -7 15 -16z m4076 7 c0 -11 -50 -24 -58 -16 -8 8 19 25 41
25 9 0 17 -4 17 -9z m-2765 -21 c3 -5 1 -10 -4 -10 -6 0 -11 5 -11 10 0 6 2
10 4 10 3 0 8 -4 11 -10z m791 -18 c-4 -3 -14 2 -24 12 -16 18 -16 18 6 6 13
-6 21 -14 18 -18z m-2619 1 c-9 -9 -20 -13 -24 -9 -4 4 -1 11 7 16 25 16 35
11 17 -7z m4673 7 c0 -5 -4 -10 -10 -10 -5 0 -10 5 -10 10 0 6 5 10 10 10 6 0
10 -4 10 -10z m-5879 -27 c-12 -20 -14 -14 -5 12 4 9 9 14 11 11 3 -2 0 -13
-6 -23z m579 8 c0 -11 -4 -23 -10 -26 -6 -4 -10 5 -10 19 0 14 5 26 10 26 6 0
10 -9 10 -19z m3875 9 c3 -6 -1 -7 -9 -4 -18 7 -21 14 -7 14 6 0 13 -4 16 -10z
m320 0 c3 -5 2 -10 -4 -10 -5 0 -13 5 -16 10 -3 6 -2 10 4 10 5 0 13 -4 16
-10z m-3006 -9 c8 -5 11 -16 8 -25 -9 -24 -24 -19 -29 9 -6 27 -1 30 21 16z
m4019 -24 c2 -10 -3 -17 -12 -17 -10 0 -16 9 -16 21 0 24 23 21 28 -4z m-2398
9 c0 -2 -7 -6 -15 -10 -8 -3 -15 -1 -15 4 0 6 7 10 15 10 8 0 15 -2 15 -4z
m208 -1 c-3 -3 -18 -8 -34 -11 -22 -3 -25 -2 -14 6 15 10 58 14 48 5z m252 -5
c0 -5 -4 -10 -10 -10 -5 0 -10 5 -10 10 0 6 5 10 10 10 6 0 10 -4 10 -10z
m-1520 -147 c0 -76 -4 -133 -8 -126 -13 21 -30 -1 -35 -42 -3 -36 -4 -35 -5
13 -1 28 1 51 6 51 23 -4 32 4 32 27 0 22 -3 24 -22 19 -18 -5 -20 -4 -8 4 12
8 9 15 -19 41 -40 35 -47 36 -60 13 -5 -10 -13 -14 -18 -9 -4 5 -3 11 4 13 7
2 9 11 6 20 -4 10 -2 14 4 10 17 -11 73 4 73 19 0 8 5 14 11 14 7 0 10 12 7
29 -3 21 -1 28 9 24 7 -3 13 0 13 6 0 6 2 11 5 11 3 0 5 -62 5 -137z m-697
112 c1 -5 -7 -11 -18 -13 -11 -2 -25 -10 -32 -18 -8 -12 -13 -12 -19 -3 -4 7
2 20 16 31 24 19 50 21 53 3z m1927 5 c0 -5 -4 -10 -10 -10 -5 0 -10 5 -10 10
0 6 5 10 10 10 6 0 10 -4 10 -10z m17 -22 c-3 -8 -6 -5 -6 6 -1 11 2 17 5 13
3 -3 4 -12 1 -19z m-1904 -16 c10 -10 14 -22 10 -25 -12 -13 -23 -7 -23 12 0
11 -6 22 -12 24 -8 3 -8 6 -2 6 6 1 18 -7 27 -17z m123 -29 c-10 -10 -19 5
-10 18 6 11 8 11 12 0 2 -7 1 -15 -2 -18z m3094 17 c0 -5 -5 -10 -11 -10 -5 0
-7 5 -4 10 3 6 8 10 11 10 2 0 4 -4 4 -10z m-830 -10 c0 -5 -7 -10 -16 -10 -8
0 -12 5 -9 10 3 6 10 10 16 10 5 0 9 -4 9 -10z m-3910 -10 c0 -5 -5 -10 -11
-10 -5 0 -7 5 -4 10 3 6 8 10 11 10 2 0 4 -4 4 -10z m1100 -7 c0 -5 -7 -17
-15 -27 -15 -20 -20 -10 -9 18 6 16 24 22 24 9z m4180 -3 c0 -5 -2 -10 -4 -10
-3 0 -8 5 -11 10 -3 6 -1 10 4 10 6 0 11 -4 11 -10z m-5340 -38 c0 -15 -2 -15
-10 -2 -13 20 -13 33 0 25 6 -3 10 -14 10 -23z m1730 20 c0 -12 50 -33 61 -27
5 4 19 -1 31 -9 21 -15 24 -14 43 7 17 20 26 22 55 16 32 -6 33 -7 12 -14 -18
-6 -21 -10 -10 -17 9 -7 6 -8 -10 -5 -20 5 -21 3 -11 -10 7 -8 23 -13 35 -10
11 2 21 -1 21 -7 -1 -33 5 -46 19 -46 28 0 8 -25 -22 -28 -52 -4 -118 -25
-146 -45 -32 -24 -92 -17 -108 13 -14 27 -13 33 9 27 25 -6 51 10 51 33 0 10
6 20 13 23 6 2 9 7 6 11 -3 3 -23 -3 -44 -13 -32 -15 -35 -20 -20 -23 18 -4
18 -6 3 -12 -23 -10 -82 46 -66 62 7 7 7 16 0 29 -10 17 -8 19 19 15 16 -2 32
-8 35 -13 3 -5 12 -9 20 -9 19 0 18 29 -1 36 -17 7 -20 24 -5 24 6 0 10 -4 10
-8z m2264 2 c9 -3 16 -12 16 -20 0 -16 -16 -19 -25 -4 -4 6 -11 8 -16 5 -5 -4
-9 1 -9 9 0 17 9 20 34 10z m1396 -8 c0 -11 -19 -15 -25 -6 -3 5 1 10 9 10 9
0 16 -2 16 -4z m-1772 -41 c-3 -3 -9 2 -12 12 -6 14 -5 15 5 6 7 -7 10 -15 7
-18z m242 10 c0 -8 -4 -15 -10 -15 -5 0 -10 7 -10 15 0 8 5 15 10 15 6 0 10
-7 10 -15z m-3875 -15 c3 -6 -1 -7 -9 -4 -18 7 -21 14 -7 14 6 0 13 -4 16 -10z
m2828 -15 c-3 -9 -8 -14 -10 -11 -3 3 -2 9 2 15 9 16 15 13 8 -4z m201 6 c3
-5 -1 -14 -9 -21 -13 -10 -15 -9 -15 9 0 21 14 28 24 12z m636 -1 c0 -5 -4
-10 -10 -10 -5 0 -10 5 -10 10 0 6 5 10 10 10 6 0 10 -4 10 -10z m44 -16 c5
-14 4 -15 -9 -4 -17 14 -19 20 -6 20 5 0 12 -7 15 -16z m-1008 -19 c-9 -13
-16 -36 -16 -50 0 -27 -1 -28 -24 -19 -20 8 -21 44 -1 44 8 0 15 4 15 9 0 10
28 41 37 41 3 0 -2 -11 -11 -25z m-2556 -32 c0 -7 -4 -13 -10 -13 -5 0 -10 12
-10 28 0 21 2 24 10 12 5 -8 10 -21 10 -27z m5305 17 c3 -5 1 -10 -4 -10 -6 0
-11 5 -11 10 0 6 2 10 4 10 3 0 8 -4 11 -10z m-5419 -27 c-7 -7 -26 7 -26 19
0 6 6 6 15 -2 9 -7 13 -15 11 -17z m1994 -13 c0 -5 -4 -10 -10 -10 -5 0 -10 5
-10 10 0 6 5 10 10 10 6 0 10 -4 10 -10z m1885 -20 c3 -5 2 -10 -4 -10 -5 0
-13 5 -16 10 -3 6 -2 10 4 10 5 0 13 -4 16 -10z m625 6 c0 -3 -4 -8 -10 -11
-5 -3 -10 -1 -10 4 0 6 5 11 10 11 6 0 10 -2 10 -4z m-4470 -33 c0 -22 -17
-50 -25 -42 -6 7 11 59 20 59 3 0 5 -8 5 -17z m457 11 c-3 -3 -12 -4 -19 -1
-8 3 -5 6 6 6 11 1 17 -2 13 -5z m1721 -125 c-11 -7 -11 -9 0 -9 8 0 12 -9 11
-22 -4 -32 11 -92 25 -100 7 -5 5 -8 -6 -8 -14 0 -18 -9 -19 -37 -1 -27 -3
-30 -6 -13 -2 14 -7 32 -10 40 -3 8 -5 18 -5 23 1 4 -4 6 -10 5 -7 -2 -12 5
-12 15 1 9 -2 17 -7 17 -5 0 -9 7 -9 15 0 20 -30 7 -30 -14 -1 -14 -2 -14 -9
-1 -5 8 -12 26 -15 40 -5 19 -5 21 3 9 14 -22 63 -13 59 10 -2 9 -9 17 -16 17
-25 3 -26 6 -4 14 16 7 22 18 22 39 0 32 26 50 33 23 3 -10 5 -5 6 11 0 15 -4
27 -10 27 -8 0 -7 6 2 17 12 14 14 8 17 -47 2 -44 -1 -66 -10 -71z m1417 121
c3 -6 -1 -7 -9 -4 -18 7 -21 14 -7 14 6 0 13 -4 16 -10z m95 -20 c0 -5 -2 -10
-4 -10 -3 0 -8 5 -11 10 -3 6 -1 10 4 10 6 0 11 -4 11 -10z m-1720 -10 c0 -5
-5 -10 -11 -10 -5 0 -7 5 -4 10 3 6 8 10 11 10 2 0 4 -4 4 -10z m2229 -38
c-10 -2 -26 -17 -34 -33 -21 -40 -24 -36 -11 14 17 66 26 74 47 46 18 -23 18
-24 -2 -27z m-2459 34 c0 -3 -4 -8 -10 -11 -5 -3 -10 -1 -10 4 0 6 5 11 10 11
6 0 10 -2 10 -4z m2280 -5 c0 -5 3 -18 6 -28 5 -16 4 -16 -10 1 -18 23 -20 36
-6 36 6 0 10 -4 10 -9z m-2178 -33 c-7 -7 -12 -8 -12 -2 0 14 12 26 19 19 2
-3 -1 -11 -7 -17z m908 7 c10 -12 10 -15 -4 -15 -9 0 -16 7 -16 15 0 8 2 15 4
15 2 0 9 -7 16 -15z m1020 6 c0 -11 53 -33 70 -29 8 2 14 -4 15 -12 0 -11 13
-15 47 -17 32 -1 57 -9 75 -23 l28 -22 5 29 c3 15 7 27 10 26 34 -13 39 -16
35 -22 -7 -12 88 -97 134 -120 40 -21 68 -21 56 0 -9 13 17 10 37 -5 14 -10
15 -15 5 -26 -7 -8 -8 -14 -2 -17 6 -2 44 -21 85 -41 l75 -37 3 -60 c6 -105 6
-111 -19 -137 -13 -14 -32 -36 -42 -49 -10 -14 -8 -8 4 14 12 21 23 48 24 60
4 41 5 42 15 27 8 -13 10 -12 10 3 0 19 -11 22 -26 7 -6 -6 -15 2 -26 21 -16
28 -16 30 1 41 11 7 16 19 13 30 -3 12 0 18 8 16 23 -5 22 21 -2 36 -31 20
-83 33 -74 18 4 -6 -3 -16 -14 -22 -11 -6 -20 -21 -20 -34 0 -28 -43 -44 -66
-25 -21 17 -17 35 13 54 l26 18 -22 11 c-12 7 -18 16 -14 21 4 4 0 5 -10 2
-11 -4 -16 -3 -12 3 3 5 -5 21 -18 34 -26 26 -118 76 -140 76 -7 0 -24 11 -36
24 -36 38 -87 59 -111 46 -20 -11 -26 -8 -129 48 -23 12 -39 27 -36 32 8 12
25 13 25 1z m-3390 -20 c0 -11 -4 -23 -10 -26 -6 -4 -10 5 -10 19 0 14 5 26
10 26 6 0 10 -9 10 -19z m2302 -23 c-7 -7 -12 -8 -12 -2 0 14 12 26 19 19 2
-3 -1 -11 -7 -17z m938 12 c0 -5 -5 -10 -11 -10 -5 0 -7 5 -4 10 3 6 8 10 11
10 2 0 4 -4 4 -10z m1137 -22 c-3 -8 -6 -5 -6 6 -1 11 2 17 5 13 3 -3 4 -12 1
-19z m-2002 -18 c3 -5 1 -10 -4 -10 -6 0 -11 5 -11 10 0 6 2 10 4 10 3 0 8 -4
11 -10z m884 -66 c-13 -16 -45 -19 -54 -4 -11 18 6 50 25 50 10 0 22 6 27 13
5 8 9 3 11 -16 2 -16 -2 -35 -9 -43z m-3119 52 c0 -3 -4 -8 -10 -11 -5 -3 -10
-1 -10 4 0 6 5 11 10 11 6 0 10 -2 10 -4z m-56 -30 c3 2 3 0 -2 -6 -9 -11 -52
-2 -52 11 0 5 11 4 24 -1 13 -5 27 -7 30 -4z m3856 -27 c0 -14 -17 -10 -23 5
-4 10 -1 13 9 9 7 -3 14 -9 14 -14z m-3656 -14 c-4 -8 -11 -15 -16 -15 -6 0
-5 6 2 15 7 8 14 15 16 15 2 0 1 -7 -2 -15z m-134 -11 c0 -2 -12 -4 -26 -4
-14 0 -23 4 -20 9 6 8 46 4 46 -5z m1388 -14 c33 -20 43 -34 17 -24 -9 4 -16
-3 -21 -20 -10 -40 -26 -31 -18 10 7 36 6 37 -20 32 -21 -4 -24 -3 -15 8 15
18 18 18 57 -6z m3021 -12 c-9 -16 -14 -19 -17 -9 -2 7 2 17 9 22 20 13 21 11
8 -13z m-1265 -4 c4 -11 1 -14 -11 -12 -9 2 -18 9 -21 16 -6 18 25 15 32 -4z
m696 -9 c-7 -9 -15 -13 -19 -10 -3 3 1 10 9 15 21 14 24 12 10 -5z m-2330 -5
c0 -5 -2 -10 -4 -10 -3 0 -8 5 -11 10 -3 6 -1 10 4 10 6 0 11 -4 11 -10z
m-990 -36 c0 -2 -13 2 -30 11 -16 9 -30 18 -30 21 0 2 14 -2 30 -11 17 -9 30
-18 30 -21z m1845 26 c3 -5 1 -10 -4 -10 -6 0 -11 5 -11 10 0 6 2 10 4 10 3 0
8 -4 11 -10z m-345 -10 c0 -5 -4 -10 -10 -10 -5 0 -10 5 -10 10 0 6 5 10 10
10 6 0 10 -4 10 -10z m-1844 -27 c-10 -10 -19 5 -10 18 6 11 8 11 12 0 2 -7 1
-15 -2 -18z m4274 -8 c0 -8 -4 -15 -10 -15 -5 0 -10 7 -10 15 0 8 5 15 10 15
6 0 10 -7 10 -15z m-2787 -116 c0 -66 -4 -94 -14 -100 -12 -8 -12 -11 1 -19
12 -7 14 -35 13 -152 -1 -90 -6 -144 -12 -146 -6 -2 -11 -8 -11 -13 0 -6 5 -7
10 -4 6 4 10 -29 9 -92 0 -69 -3 -91 -9 -75 -5 12 -7 28 -4 36 3 7 -2 16 -11
20 -9 3 -14 2 -11 -2 3 -5 1 -22 -4 -38 -7 -26 -8 -24 -10 21 -2 46 0 168 4
223 0 12 4 22 9 22 4 0 7 4 7 10 0 5 -6 7 -13 4 -10 -4 -12 3 -9 26 2 16 8 30
13 30 5 0 9 7 9 16 0 8 -4 12 -10 9 -6 -4 -10 26 -11 82 -1 48 -3 105 -4 125
-2 21 0 40 6 43 5 4 9 -2 10 -12 0 -13 3 -12 11 7 5 14 11 34 13 45 1 11 3 24
4 29 0 5 4 6 8 3 3 -4 6 -48 6 -98z m1644 70 c83 -38 169 -94 177 -116 4 -9
-5 -5 -20 10 -15 15 -37 27 -50 27 -13 0 -23 5 -21 11 1 6 -36 31 -83 55 -99
50 -101 58 -3 13z m-1817 7 c0 -11 -19 -15 -25 -6 -3 5 1 10 9 10 9 0 16 -2
16 -4z m87 -108 c-3 -8 -6 -5 -6 6 -1 11 2 17 5 13 3 -3 4 -12 1 -19z m2436
15 c-7 -2 -19 -2 -25 0 -7 3 -2 5 12 5 14 0 19 -2 13 -5z m-617 -30 c-3 -8 -6
-17 -6 -19 0 -2 -9 -4 -19 -4 -28 0 -37 21 -17 36 22 15 49 7 42 -13z m458
-104 c-7 -12 -47 -5 -52 9 -1 5 5 12 15 14 21 5 45 -10 37 -23z m-2334 -123
c0 -11 -19 -15 -25 -6 -3 5 1 10 9 10 9 0 16 -2 16 -4z m2478 -48 c7 -7 12
-21 11 -32 0 -20 -1 -20 -11 2 -6 12 -18 22 -26 22 -12 0 -11 -4 4 -21 19 -21
19 -21 -1 -18 -24 5 -33 38 -13 50 17 12 22 11 36 -3z m-1043 -8 c3 -5 1 -10
-4 -10 -6 0 -11 5 -11 10 0 6 2 10 4 10 3 0 8 -4 11 -10z m200 -19 c-3 -6 -11
-11 -17 -11 -6 0 -6 6 2 15 14 17 26 13 15 -4z m-1600 -121 c3 -5 1 -10 -4
-10 -6 0 -11 5 -11 10 0 6 2 10 4 10 3 0 8 -4 11 -10z m-5 -116 c0 -8 -4 -12
-10 -9 -5 3 -10 10 -10 16 0 5 5 9 10 9 6 0 10 -7 10 -16z m107 -91 c-3 -10
-5 -2 -5 17 0 19 2 27 5 18 2 -10 2 -26 0 -35z m-40 5 c-3 -8 -6 -5 -6 6 -1
11 2 17 5 13 3 -3 4 -12 1 -19z m1333 -3 c0 -9 -6 -12 -15 -9 -8 4 -15 10 -15
15 0 5 7 9 15 9 8 0 15 -7 15 -15z m137 -1 c7 -20 -22 -45 -43 -37 -14 5 -19
35 -7 46 12 13 44 7 50 -9z m-1427 -51 c0 -9 -1 -14 -3 -12 -1 2 -11 15 -22
28 l-20 24 23 -12 c12 -6 22 -19 22 -28z m-395 -54 c0 -17 -6 -25 -22 -27 -26
-4 -27 -2 -11 33 14 31 33 28 33 -6z m1615 -39 c0 -5 -4 -10 -10 -10 -5 0 -10
5 -10 10 0 6 5 10 10 10 6 0 10 -4 10 -10z m60 -20 c8 -5 12 -11 9 -14 -7 -8
-49 5 -49 15 0 12 21 11 40 -1z m-1289 -55 c5 3 8 -53 8 -130 -1 -79 -5 -138
-11 -141 -7 -4 -7 -9 1 -13 6 -4 11 -51 12 -116 2 -132 -2 -206 -8 -182 -2 9
-9 17 -14 17 -6 0 -7 6 -2 13 11 18 12 36 2 43 -11 6 -29 -37 -22 -50 3 -4 1
-11 -5 -15 -5 -3 -11 -24 -12 -46 -3 -55 1 -93 7 -77 2 6 9 10 14 6 5 -3 9 -2
8 3 -3 20 2 34 11 28 6 -3 11 4 12 17 1 13 4 -2 7 -32 7 -60 3 -90 -10 -90 -5
0 -6 7 -3 15 4 8 2 15 -4 15 -17 0 -20 -24 -4 -36 9 -6 15 -33 17 -75 1 -35 1
-49 -2 -31 -2 17 -8 32 -13 32 -14 0 -29 -34 -32 -69 -1 -17 -6 -31 -11 -31
-4 0 -5 -4 -2 -10 10 -16 36 -12 51 8 11 14 13 -13 14 -175 0 -192 0 -192 -25
-217 -14 -14 -25 -30 -25 -35 0 -7 8 -7 25 -1 21 8 25 7 25 -8 0 -10 13 -28
30 -40 24 -18 28 -26 21 -45 -4 -12 -7 -31 -5 -42 2 -11 5 -32 8 -46 2 -14 11
-40 20 -57 16 -30 18 -31 61 -25 29 4 45 2 45 -5 0 -10 -52 -52 -64 -52 -20 0
-85 -37 -89 -50 -5 -21 14 -48 31 -43 7 3 12 -4 12 -16 0 -12 -4 -21 -9 -21
-5 0 -16 -3 -24 -6 -12 -4 -14 0 -10 17 4 15 3 20 -5 15 -7 -4 -12 -20 -12
-37 0 -19 -5 -29 -15 -29 -8 0 -15 -5 -15 -11 0 -5 5 -7 10 -4 6 4 10 -6 9
-22 0 -27 -1 -27 -9 -5 -11 26 -16 27 -62 7 -40 -16 -70 -56 -72 -96 -2 -33
-16 -52 -16 -21 0 37 -15 25 -64 -47 -44 -64 -71 -89 -84 -76 -3 3 0 5 7 5 8
0 11 8 8 19 -3 12 0 18 7 15 6 -2 22 13 35 33 13 21 35 54 48 74 16 24 22 47
21 71 -2 20 -5 36 -8 36 -3 0 -14 0 -25 1 -19 1 -18 3 5 21 23 17 25 25 26
107 0 56 -4 93 -12 103 -6 8 -14 24 -16 35 -2 11 -10 19 -16 18 -18 -4 -14 11
11 43 35 45 28 90 -15 107 -10 3 -18 15 -18 26 0 11 -5 21 -11 23 -15 5 10 58
28 58 7 0 13 7 13 16 0 11 -6 14 -20 9 -22 -7 -24 -3 -11 23 4 9 16 33 26 53
12 26 25 39 46 43 34 6 41 41 10 51 -29 9 -32 41 -10 134 21 91 24 197 5 220
-8 11 -8 15 2 18 8 3 12 33 12 102 0 77 4 105 20 136 24 47 24 45 5 45 -20 0
-19 16 1 24 11 4 14 14 10 33 -3 16 -7 56 -8 90 -2 45 -6 64 -17 68 -14 5 -14
7 -1 15 11 7 8 10 -15 11 l-30 1 30 13 c31 15 28 18 -15 17 -22 -1 -21 0 7 10
19 6 35 20 39 32 8 26 84 106 100 106 7 0 16 5 20 12 5 8 1 9 -12 4 -15 -6
-16 -5 -7 5 7 6 10 26 7 43 -2 17 -2 25 2 18 3 -6 10 -10 15 -7z m1503 -20 c3
-9 -1 -18 -10 -22 -19 -7 -39 11 -30 26 10 16 33 13 40 -4z m-1600 -67 c-1
-13 -3 -29 -3 -36 -1 -7 -5 -11 -9 -8 -4 3 -6 21 -4 40 2 20 7 34 11 31 4 -2
7 -14 5 -27z m1310 -13 c-4 -8 -10 -15 -15 -15 -4 0 -6 7 -3 15 4 8 10 15 15
15 4 0 6 -7 3 -15z m-1394 -5 c0 -5 -4 -10 -10 -10 -5 0 -10 5 -10 10 0 6 5
10 10 10 6 0 10 -4 10 -10z m-340 -56 c0 -8 -7 -14 -15 -14 -15 0 -21 21 -9
33 10 9 24 -2 24 -19z m379 4 c6 -16 4 -25 -5 -31 -18 -11 -34 0 -34 22 0 36
26 42 39 9z m1706 -48 c3 -5 2 -10 -4 -10 -5 0 -13 5 -16 10 -3 6 -2 10 4 10
5 0 13 -4 16 -10z m-322 -35 c-21 -29 -38 -33 -23 -6 8 16 20 25 38 30 2 1 -5
-10 -15 -24z m1720 -5 c6 -23 -10 -37 -25 -22 -12 12 -4 42 11 42 5 0 11 -9
14 -20z m-1693 -50 c0 -5 -5 -10 -11 -10 -5 0 -7 5 -4 10 3 6 8 10 11 10 2 0
4 -4 4 -10z m-13 -52 c-3 -8 -6 -5 -6 6 -1 11 2 17 5 13 3 -3 4 -12 1 -19z m0
-40 c-3 -8 -6 -5 -6 6 -1 11 2 17 5 13 3 -3 4 -12 1 -19z m-1118 -10 c-1 -7
-1 -29 0 -48 1 -27 4 -31 11 -20 8 13 10 12 10 -3 0 -12 -6 -17 -16 -15 -23 4
-31 98 -8 98 3 0 4 -6 3 -12z m96 -38 c-6 -9 -9 -9 -16 1 -10 17 0 34 13 21 6
-6 7 -16 3 -22z m5 -35 c7 -9 8 -15 2 -15 -5 0 -12 7 -16 15 -3 8 -4 15 -2 15
2 0 9 -7 16 -15z m2568 -37 c17 -17 15 -67 -3 -74 -25 -10 -63 5 -70 27 -13
40 44 76 73 47z m-1287 -13 c-1 -15 -24 -12 -29 3 -3 9 2 13 12 10 10 -1 17
-7 17 -13z m-291 -105 c0 -5 -5 -10 -11 -10 -5 0 -7 5 -4 10 3 6 8 10 11 10 2
0 4 -4 4 -10z m-1449 -79 c23 -19 23 -20 3 -15 -18 5 -25 -2 -43 -38 -11 -25
-21 -54 -21 -65 0 -12 -7 -23 -15 -27 -8 -3 -15 -14 -15 -23 0 -18 -18 -38
-56 -63 -16 -10 -16 -11 -1 -6 9 3 17 1 17 -4 0 -17 -18 -20 -30 -5 -9 11 -7
16 9 27 12 7 21 21 21 30 0 10 9 22 21 28 25 14 20 33 -12 40 l-24 6 29 15
c19 9 39 33 55 66 14 29 29 52 32 53 4 0 17 -9 30 -19z m1522 -3 c7 -21 -4
-38 -23 -38 -23 0 -34 16 -26 35 7 18 43 20 49 3z m116 -2 c12 -14 5 -46 -9
-46 -11 0 -40 29 -40 39 0 23 32 28 49 7z m-224 -26 c3 -5 1 -10 -4 -10 -6 0
-11 5 -11 10 0 6 2 10 4 10 3 0 8 -4 11 -10z m-1425 -90 c0 -4 -8 -10 -19 -13
-14 -3 -17 0 -14 14 5 17 33 16 33 -1z m-173 -38 c-10 -10 -17 -26 -17 -35 0
-10 -8 -17 -19 -17 -10 0 -24 -7 -31 -15 -23 -28 -22 -8 1 27 20 32 49 53 73
57 5 0 2 -7 -7 -17z m1607 -18 c5 -14 4 -15 -9 -4 -17 14 -19 20 -6 20 5 0 12
-7 15 -16z m-1623 -141 c-8 -15 -10 -15 -11 -2 0 17 10 32 18 25 2 -3 -1 -13
-7 -23z m749 18 c0 -21 -13 -41 -26 -41 -8 0 -14 -10 -14 -26 0 -21 -3 -25
-17 -19 -10 4 -26 10 -35 12 -19 6 -24 28 -8 38 5 3 19 1 31 -6 17 -9 20 -8
16 3 -2 7 2 21 11 31 16 18 42 23 42 8z m300 -45 l-22 -21 18 35 c10 21 19 30
22 21 2 -7 -6 -23 -18 -35z m580 24 c0 -5 -4 -10 -10 -10 -5 0 -10 5 -10 10 0
6 5 10 10 10 6 0 10 -4 10 -10z m-1947 -15 c-3 -9 -8 -14 -10 -11 -3 3 -2 9 2
15 9 16 15 13 8 -4z m1937 -35 c0 -5 -5 -10 -11 -10 -5 0 -7 5 -4 10 3 6 8 10
11 10 2 0 4 -4 4 -10z m-470 -10 c0 -5 -4 -10 -10 -10 -5 0 -10 5 -10 10 0 6
5 10 10 10 6 0 10 -4 10 -10z m-1160 -30 c0 -11 -4 -20 -10 -20 -5 0 -10 9
-10 20 0 11 5 20 10 20 6 0 10 -9 10 -20z m985 -20 c-10 -11 -22 -20 -27 -20
-5 0 -4 9 2 20 6 11 18 20 27 20 14 0 14 -2 -2 -20z m-456 -31 c-22 -14 -33
-10 -19 6 7 8 17 12 22 9 6 -4 5 -10 -3 -15z m1151 11 c0 -5 -2 -10 -4 -10 -3
0 -8 5 -11 10 -3 6 -1 10 4 10 6 0 11 -4 11 -10z m-1920 -10 c13 -9 13 -10 0
-10 -8 0 -22 5 -30 10 -13 9 -13 10 0 10 8 0 22 -5 30 -10z m230 -4 c0 -3 -4
-8 -10 -11 -5 -3 -10 -1 -10 4 0 6 5 11 10 11 6 0 10 -2 10 -4z m-120 -56 c0
-5 -4 -10 -10 -10 -5 0 -10 5 -10 10 0 6 5 10 10 10 6 0 10 -4 10 -10z m170
-19 c0 -6 -4 -13 -10 -16 -5 -3 -10 1 -10 9 0 9 5 16 10 16 6 0 10 -4 10 -9z
m1730 -6 c0 -10 -9 -14 -30 -12 -30 2 -36 8 -23 20 13 13 53 7 53 -8z m-150
-25 c0 -5 -4 -10 -10 -10 -5 0 -10 5 -10 10 0 6 5 10 10 10 6 0 10 -4 10 -10z
m-1643 -74 c-7 -22 -34 -17 -39 8 -5 22 -3 23 19 13 13 -6 22 -15 20 -21z
m1693 20 c0 -3 -4 -8 -10 -11 -5 -3 -10 -1 -10 4 0 6 5 11 10 11 6 0 10 -2 10
-4z m-40 -60 c0 -3 -4 -8 -10 -11 -5 -3 -10 -1 -10 4 0 6 5 11 10 11 6 0 10
-2 10 -4z m-1646 -101 c-5 -11 -1 -14 12 -9 18 5 18 5 0 -10 -13 -10 -23 -13
-29 -7 -11 11 -2 41 12 41 6 0 8 -7 5 -15z m1813 -66 c12 -18 19 -38 15 -48
-6 -15 -7 -15 -10 0 -1 9 -14 22 -27 29 -25 13 -32 30 -18 43 11 12 17 8 40
-24z m-1756 -26 c-9 -16 -10 -14 -11 12 0 21 3 26 11 18 8 -8 8 -16 0 -30z
m-81 13 c0 -3 -4 -8 -10 -11 -5 -3 -10 -1 -10 4 0 6 5 11 10 11 6 0 10 -2 10
-4z m3573 -11 c7 -17 -8 -29 -28 -21 -17 6 -9 36 10 36 7 0 15 -7 18 -15z
m-2946 -27 c-3 -8 -6 -5 -6 6 -1 11 2 17 5 13 3 -3 4 -12 1 -19z m-637 -8 c0
-5 -5 -10 -11 -10 -5 0 -7 5 -4 10 3 6 8 10 11 10 2 0 4 -4 4 -10z m10 -75 c0
-12 -10 -25 -25 -32 -14 -6 -25 -7 -25 -3 0 5 6 10 13 12 13 5 18 58 4 58 -4
0 -5 5 -2 11 9 14 34 -20 35 -46z m2084 40 c3 -8 1 -15 -3 -15 -5 0 -11 7 -15
15 -3 8 -1 15 3 15 5 0 11 -7 15 -15z m-390 -20 c-4 -8 -8 -15 -10 -15 -2 0
-4 7 -4 15 0 8 4 15 10 15 5 0 7 -7 4 -15z m64 -10 c-3 -3 -9 2 -12 12 -6 14
-5 15 5 6 7 -7 10 -15 7 -18z m-1677 8 c3 -31 11 -45 36 -67 25 -22 26 -24 6
-19 -30 7 -58 40 -58 69 -1 21 14 36 16 17z m-51 -95 c0 -15 -28 -8 -34 8 -10
25 4 37 20 17 7 -10 14 -21 14 -25z m233 22 c3 -11 2 -20 -3 -20 -12 0 -31 26
-23 33 11 12 21 7 26 -13z m1492 -90 c3 -5 1 -10 -4 -10 -6 0 -11 5 -11 10 0
6 2 10 4 10 3 0 8 -4 11 -10z m-1577 -22 c17 -17 15 -33 -2 -19 -11 9 -15 9
-19 -1 -2 -7 -8 -10 -12 -6 -9 9 1 38 13 38 4 0 13 -5 20 -12z m44 -10 c-13
-17 3 -58 23 -58 9 0 14 -4 11 -8 -3 -5 -18 -7 -34 -4 -39 5 -50 -14 -21 -39
12 -10 17 -20 11 -20 -7 -1 -18 -2 -24 -3 -7 -1 -16 3 -20 9 -5 7 -11 7 -15 0
-12 -16 -58 -12 -58 5 0 8 -9 16 -20 18 -48 7 -67 13 -60 20 4 4 10 7 13 8 30
4 61 25 56 39 -8 19 10 20 25 1 12 -14 84 -18 75 -4 -3 4 -1 8 4 8 5 0 12 9
15 20 3 11 11 20 17 20 9 0 9 -4 2 -12z m1518 -13 c-5 -6 -6 -16 -2 -21 4 -4
-1 -3 -10 5 -20 15 -13 42 8 34 10 -4 11 -9 4 -18z m-705 5 c3 -5 1 -10 -4
-10 -6 0 -11 5 -11 10 0 6 2 10 4 10 3 0 8 -4 11 -10z m-1005 -24 c0 -3 -4 -8
-10 -11 -5 -3 -10 -1 -10 4 0 6 5 11 10 11 6 0 10 -2 10 -4z m1740 -46 c0 -5
-5 -10 -11 -10 -5 0 -7 5 -4 10 3 6 8 10 11 10 2 0 4 -4 4 -10z m290 -4 c0 -8
-4 -17 -9 -21 -12 -7 -24 12 -16 25 9 15 25 12 25 -4z m-1582 -116 c-2 -14 -7
-17 -18 -10 -12 7 -12 12 -2 22 6 6 13 21 13 33 2 18 2 18 6 -2 2 -13 3 -32 1
-43z m-636 -35 c-4 -34 -22 -50 -22 -20 0 19 -10 19 -38 -1 -24 -17 -39 -14
-27 5 6 10 73 50 85 51 4 0 4 -16 2 -35z m2038 24 c0 -5 -4 -7 -10 -4 -5 3
-10 1 -10 -5 0 -6 -5 -8 -10 -5 -6 4 -8 11 -5 16 8 12 35 11 35 -2z m-906 -41
c4 -22 2 -37 -9 -47 -17 -18 -33 -7 -17 12 6 7 9 25 6 40 -6 38 12 34 20 -5z
m164 -10 c-1 -25 -4 -27 -27 -21 -33 8 -34 8 -27 30 3 11 15 18 30 18 20 0 24
-5 24 -27z m-1221 -50 c-3 -8 -6 -5 -6 6 -1 11 2 17 5 13 3 -3 4 -12 1 -19z
m246 -19 c-5 -19 -40 -52 -79 -75 -18 -11 -18 -13 3 -50 12 -22 26 -39 30 -40
4 0 34 -3 65 -8 54 -7 56 -9 55 -34 -2 -23 2 -27 23 -27 18 0 26 6 28 23 4 28
22 29 29 2 7 -27 38 -18 76 21 34 36 61 39 52 7 -16 -58 -38 -108 -47 -108 -6
0 -8 -7 -5 -15 4 -8 2 -17 -3 -20 -6 -4 -7 -17 -4 -31 5 -19 3 -23 -10 -18
-22 8 -69 -24 -62 -42 7 -19 -29 -55 -48 -48 -9 3 -20 -3 -28 -15 -7 -12 -21
-21 -31 -21 -34 0 -15 -35 21 -38 17 -2 32 -7 32 -13 0 -5 7 -9 15 -9 8 0 15
5 15 10 0 6 5 10 11 10 6 0 9 -7 5 -15 -4 -11 1 -15 19 -15 24 0 30 13 28 67
-1 7 3 10 8 7 5 -3 9 -18 9 -35 0 -16 9 -38 19 -48 18 -18 18 -19 -20 -34 -22
-9 -37 -11 -36 -5 1 6 -4 13 -12 16 -10 3 -12 0 -8 -12 5 -14 -2 -16 -46 -16
-29 0 -57 4 -62 9 -6 5 -26 14 -45 19 -19 6 -53 17 -74 25 -37 14 -38 15 -18
26 11 6 30 11 41 11 21 0 27 15 13 37 -6 9 -25 10 -80 2 -40 -6 -81 -9 -89 -7
-15 3 -15 5 0 20 9 9 17 24 17 34 0 14 3 14 15 4 12 -10 21 -10 42 -1 l26 12
-34 28 c-18 16 -39 26 -46 24 -7 -3 -11 -8 -8 -13 2 -4 -7 -5 -20 -2 -24 4
-36 32 -15 32 6 0 10 6 10 13 0 16 -38 62 -51 62 -5 0 -9 5 -9 10 0 6 28 10
65 9 36 0 65 3 65 7 0 4 9 11 20 14 11 3 20 15 20 26 0 10 4 19 9 19 16 0 21
44 9 82 -8 29 -16 38 -33 38 -22 0 -113 76 -102 86 3 3 24 -13 46 -35 42 -42
71 -53 71 -25 0 11 -6 13 -19 9 -11 -3 -23 -1 -26 6 -9 13 15 31 33 24 6 -2
12 2 12 10 0 12 4 12 27 0 26 -14 28 -13 51 22 25 36 45 32 35 -8z m306 4 c0
-25 -1 -25 -8 -8 -5 11 -7 23 -4 28 8 14 13 7 12 -20z m1251 1 c0 -8 -4 -12
-10 -9 -5 3 -10 10 -10 16 0 5 5 9 10 9 6 0 10 -7 10 -16z m130 -4 c0 -5 -2
-10 -4 -10 -3 0 -8 5 -11 10 -3 6 -1 10 4 10 6 0 11 -4 11 -10z m-815 -38 c-5
-13 -2 -13 15 3 11 10 20 13 20 7 0 -6 -9 -16 -20 -22 -16 -9 -22 -6 -35 21
-16 30 -16 30 5 19 14 -8 19 -17 15 -28z m902 32 c-3 -3 -12 -4 -19 -1 -8 3
-5 6 6 6 11 1 17 -2 13 -5z m61 -27 c5 -23 -10 -21 -26 4 -12 18 -11 20 5 17
10 -2 19 -11 21 -21z m-2168 -3 l25 -15 -25 7 c-14 3 -29 10 -34 15 -16 14 6
10 34 -7z m914 -20 c8 -21 8 -24 -5 -24 -5 0 -7 5 -3 12 5 7 2 9 -9 5 -11 -4
-14 -2 -10 9 7 19 19 18 27 -2z m-840 -20 c4 -11 2 -12 -14 -4 -27 14 -34 29
-11 23 11 -3 22 -11 25 -19z m2177 -50 c12 -14 11 -16 -5 -13 -11 2 -21 10
-24 17 -5 17 13 15 29 -4z m-2268 -59 c-3 -9 -8 -14 -10 -11 -3 3 -2 9 2 15 9
16 15 13 8 -4z m2352 -4 c5 0 10 -15 11 -32 l2 -31 -29 28 c-33 31 -40 61 -11
45 9 -5 21 -9 27 -10z m-171 -43 c-3 -4 -9 -8 -15 -8 -5 0 -9 4 -9 8 0 5 7 9
15 9 8 0 12 -4 9 -9z m186 -38 c0 -5 -2 -10 -4 -10 -3 0 -8 5 -11 10 -3 6 -1
10 4 10 6 0 11 -4 11 -10z m150 -35 c0 -14 -4 -25 -10 -25 -5 0 -10 4 -10 9 0
5 -3 16 -6 25 -4 11 -1 16 10 16 10 0 16 -9 16 -25z m-140 -5 c0 -11 -2 -20
-4 -20 -2 0 -6 9 -9 20 -3 11 -1 20 4 20 5 0 9 -9 9 -20z m-160 -9 c0 -6 -4
-13 -10 -16 -5 -3 -10 1 -10 9 0 9 5 16 10 16 6 0 10 -4 10 -9z m-1388 -23
c-7 -7 -12 -8 -12 -2 0 14 12 26 19 19 2 -3 -1 -11 -7 -17z m1658 8 c0 -3 -4
-8 -10 -11 -5 -3 -10 -1 -10 4 0 6 5 11 10 11 6 0 10 -2 10 -4z m-1387 -31
c-3 -9 -8 -14 -10 -11 -3 3 -2 9 2 15 9 16 15 13 8 -4z m-967 -60 c11 -27 -1
-39 -19 -21 -9 10 -17 22 -17 27 0 15 30 10 36 -6z m1364 -39 c0 -3 -4 -8 -10
-11 -5 -3 -10 -1 -10 4 0 6 5 11 10 11 6 0 10 -2 10 -4z m-1379 -19 c-6 -8 -8
-17 -4 -20 3 -4 -20 -7 -53 -7 -50 1 -56 2 -39 12 26 16 44 18 51 7 3 -5 12
-2 20 6 20 19 41 21 25 2z m-134 -113 c44 -19 166 -18 203 1 19 10 30 11 30 5
0 -6 -17 -18 -37 -27 -55 -22 -174 -14 -214 16 -27 20 -56 21 -44 1 8 -13 -9
-20 -25 -9 -13 8 -13 10 -1 18 13 8 10 18 -14 63 l-28 53 49 -54 c27 -29 63
-60 81 -67z m2579 108 c15 -9 15 -64 1 -59 -12 4 -29 67 -18 67 3 0 11 -4 17
-8z m-2406 -77 c0 -8 -4 -15 -9 -15 -13 0 -22 16 -14 24 11 11 23 6 23 -9z
m917 -6 c-9 -6 -17 -14 -17 -19 0 -14 34 -12 48 2 9 9 12 8 12 -5 0 -9 -15
-24 -32 -34 l-33 -18 93 -3 c69 -2 92 -6 92 -16 0 -20 -28 -28 -52 -15 -17 9
-24 8 -32 -3 -6 -8 -17 -13 -24 -10 -7 2 -12 0 -11 -5 4 -20 -2 -27 -12 -13
-8 11 -12 12 -16 3 -7 -19 -23 -16 -16 2 3 9 2 15 -3 14 -18 -4 -63 13 -68 27
-3 8 -1 14 5 14 6 0 9 6 6 13 -2 8 -20 11 -51 9 -31 -2 -45 1 -41 8 3 5 31 10
61 10 43 0 56 4 61 18 8 19 35 43 43 35 3 -2 -3 -9 -13 -14z m-197 -29 c22
-22 19 -25 -11 -10 -10 6 -19 15 -19 20 0 15 8 12 30 -10z m1710 4 c0 -8 -5
-12 -10 -9 -6 4 -8 11 -5 16 9 14 15 11 15 -7z m-2250 -63 c0 -6 -5 -13 -10
-16 -15 -9 -43 3 -35 15 8 13 45 13 45 1z m625 -19 c0 -19 5 -26 15 -24 10 1
9 -2 -4 -13 -19 -14 -19 -15 0 -37 10 -12 13 -18 6 -14 -9 5 -21 0 -33 -13
-11 -12 -24 -21 -30 -21 -6 0 -8 -4 -5 -8 3 -5 -1 -9 -9 -9 -8 0 -15 4 -15 9
0 14 -28 9 -76 -13 -28 -14 -43 -27 -40 -35 3 -7 1 -16 -3 -19 -5 -3 -11 2
-15 10 -7 20 -35 19 -43 -1 -4 -11 -13 -14 -29 -10 -13 4 -24 2 -24 -3 0 -6
-29 -9 -71 -8 -56 2 -73 7 -81 21 -8 14 -7 21 3 27 9 6 10 9 2 9 -6 0 -15 -5
-18 -10 -4 -6 -11 -8 -16 -5 -17 11 -30 -5 -19 -25 7 -13 6 -19 -5 -24 -10 -4
-24 9 -42 37 -14 23 -30 45 -36 48 -16 11 1 26 33 31 22 3 30 1 30 -11 0 -12
4 -11 18 5 20 21 28 115 10 111 -6 -1 -12 3 -15 10 -3 8 62 11 254 11 l259 0
-1 -26z m459 13 c4 -10 -1 -15 -15 -15 -11 0 -23 -9 -28 -22 -7 -20 -8 -20
-15 -3 -4 10 -2 21 5 25 7 5 8 10 1 14 -6 4 -15 -1 -20 -9 -10 -19 -42 -10
-42 11 0 21 106 20 114 -1z m51 5 c3 -5 -1 -10 -9 -10 -9 0 -16 5 -16 10 0 6
4 10 9 10 6 0 13 -4 16 -10z m182 -4 c-4 -10 -1 -13 7 -10 7 3 19 -3 27 -12
12 -16 12 -17 -3 -11 -10 3 -18 2 -18 -3 0 -6 -12 -10 -26 -10 -20 0 -25 -4
-20 -16 5 -14 4 -15 -9 -4 -8 7 -13 16 -10 20 6 10 -50 24 -92 23 -36 -1 -36
-2 -27 21 5 13 23 16 91 16 70 0 84 -3 80 -14z m-391 -23 c-10 -10 -19 5 -10
18 6 11 8 11 12 0 2 -7 1 -15 -2 -18z m504 7 c0 -5 -2 -10 -4 -10 -3 0 -8 5
-11 10 -3 6 -1 10 4 10 6 0 11 -4 11 -10z m-1560 -20 c0 -7 6 -7 20 0 37 20
23 -17 -15 -39 -106 -63 -110 -65 -96 -48 7 9 29 26 47 38 26 16 33 26 29 40
-4 11 -2 19 4 19 6 0 11 -5 11 -10z m1010 -18 c0 -4 -9 -8 -21 -9 -17 -2 -18
1 -9 12 12 14 30 12 30 -3z m-935 -12 c3 -5 -1 -10 -10 -10 -9 0 -13 5 -10 10
3 6 8 10 10 10 2 0 7 -4 10 -10z m875 0 c0 -5 -5 -10 -11 -10 -5 0 -7 5 -4 10
3 6 8 10 11 10 2 0 4 -4 4 -10z m340 0 c0 -5 -4 -10 -10 -10 -5 0 -10 5 -10
10 0 6 5 10 10 10 6 0 10 -4 10 -10z m2471 -5 c0 -5 -9 -11 -21 -13 -20 -3
-27 8 -13 22 10 9 34 3 34 -9z m-2511 -56 c0 -6 -4 -7 -10 -4 -5 3 -10 11 -10
16 0 6 5 7 10 4 6 -3 10 -11 10 -16z m504 -60 c-3 -87 -6 -95 -24 -84 -7 5
-10 19 -6 37 6 33 -24 88 -48 88 -8 0 -19 7 -26 15 -8 9 -9 15 -2 15 6 0 14
-4 17 -10 9 -15 41 -12 55 5 28 34 37 17 34 -66z m-159 61 c-3 -5 -13 -10 -21
-10 -8 0 -12 5 -9 10 3 6 13 10 21 10 8 0 12 -4 9 -10z m-2005 -10 c0 -5 -5
-10 -11 -10 -5 0 -7 5 -4 10 3 6 8 10 11 10 2 0 4 -4 4 -10z m300 -4 c0 -3
-15 -14 -32 -26 l-33 -22 28 26 c27 25 37 31 37 22z m93 -96 c-12 -5 -39 -36
-60 -69 -21 -33 -42 -60 -46 -61 -11 0 2 41 19 61 8 9 11 19 7 22 -3 4 -1 7 5
7 6 0 22 11 36 25 14 14 33 25 43 24 15 0 14 -2 -4 -9z m147 -5 c0 -8 -7 -15
-15 -15 -13 0 -14 3 -3 15 16 18 18 18 18 0z m-54 -29 c0 -14 -5 -21 -9 -17
-4 4 -5 15 -1 24 9 24 12 21 10 -7z m1784 14 c0 -5 -9 -10 -19 -10 -11 0 -23
5 -26 10 -4 6 5 10 19 10 14 0 26 -4 26 -10z m-2360 -14 c0 -3 -4 -8 -10 -11
-5 -3 -10 -1 -10 4 0 6 5 11 10 11 6 0 10 -2 10 -4z m647 -12 c-3 -3 -12 -4
-19 -1 -8 3 -5 6 6 6 11 1 17 -2 13 -5z m151 -18 c-10 -7 -18 -23 -18 -35 0
-12 -6 -21 -15 -21 -8 0 -15 7 -15 15 0 18 35 55 53 55 7 -1 5 -6 -5 -14z
m767 -30 c0 -13 -5 -22 -11 -19 -7 2 -10 13 -7 24 7 27 18 24 18 -5z m803 -13
c-14 -18 -38 -16 -38 2 0 10 9 14 24 13 19 -2 22 -5 14 -15z m-2778 -43 c0 -5
-2 -10 -4 -10 -3 0 -8 5 -11 10 -3 6 -1 10 4 10 6 0 11 -4 11 -10z m1715 0 c3
-5 -1 -10 -10 -10 -9 0 -13 5 -10 10 3 6 8 10 10 10 2 0 7 -4 10 -10z m955 0
c12 -8 11 -10 -7 -10 -13 0 -23 5 -23 10 0 13 11 13 30 0z m-220 -10 c0 -5 -4
-10 -10 -10 -5 0 -10 5 -10 10 0 6 5 10 10 10 6 0 10 -4 10 -10z m-1550 -40
c0 -5 -7 -10 -16 -10 -8 0 -12 5 -9 10 3 6 10 10 16 10 5 0 9 -4 9 -10z m1860
-9 c0 -6 -4 -13 -10 -16 -5 -3 -10 1 -10 9 0 9 5 16 10 16 6 0 10 -4 10 -9z
m40 -16 c0 -8 -4 -15 -10 -15 -5 0 -10 7 -10 15 0 8 5 15 10 15 6 0 10 -7 10
-15z m-1979 -8 c-1 -12 -15 -9 -19 4 -3 6 1 10 8 8 6 -3 11 -8 11 -12z m1909
-42 c-7 -8 -10 -22 -6 -30 3 -8 1 -15 -4 -15 -17 0 -18 15 -3 50 9 20 17 29
20 22 3 -7 -1 -19 -7 -27z m-1681 -11 c-6 -8 -18 -14 -27 -14 -13 0 -12 3 3
20 20 22 43 17 24 -6z m1891 -14 c0 -5 -7 -10 -15 -10 -8 0 -15 5 -15 10 0 6
7 10 15 10 8 0 15 -4 15 -10z"/>
<path d="M1845 6600 c-8 -13 15 -13 35 0 12 8 11 10 -7 10 -12 0 -25 -4 -28
-10z"/>
<path d="M1795 6537 c-4 -10 -5 -21 -1 -24 10 -10 18 4 13 24 -4 17 -4 17 -12
0z"/>
<path d="M4676 6791 c-4 -5 -2 -12 3 -15 5 -4 12 -2 15 3 4 5 2 12 -3 15 -5 4
-12 2 -15 -3z"/>
<path d="M4460 6683 l-22 -28 21 -3 c12 -2 21 -8 21 -13 0 -5 5 -9 11 -9 7 0
10 14 7 35 -2 19 1 37 7 39 5 2 2 5 -7 5 -9 1 -26 -11 -38 -26z"/>
<path d="M4555 6650 c3 -5 8 -10 11 -10 2 0 4 5 4 10 0 6 -5 10 -11 10 -5 0
-7 -4 -4 -10z"/>
<path d="M5620 6620 c0 -5 5 -10 11 -10 5 0 7 5 4 10 -3 6 -8 10 -11 10 -2 0
-4 -4 -4 -10z"/>
<path d="M4617 6213 c-4 -3 -7 -11 -7 -17 0 -6 5 -5 12 2 6 6 9 14 7 17 -3 3
-9 2 -12 -2z"/>
<path d="M4680 6200 c0 -5 5 -10 10 -10 6 0 10 5 10 10 0 6 -4 10 -10 10 -5 0
-10 -4 -10 -10z"/>
<path d="M4360 6130 c0 -11 7 -20 15 -20 8 0 15 5 15 11 0 5 -5 7 -12 3 -8 -5
-9 -2 -5 9 3 10 2 17 -3 17 -6 0 -10 -9 -10 -20z"/>
<path d="M4620 6140 c0 -5 5 -10 10 -10 6 0 10 5 10 10 0 6 -4 10 -10 10 -5 0
-10 -4 -10 -10z"/>
<path d="M4746 6109 c-25 -19 -27 -39 -5 -39 6 0 8 4 4 9 -3 5 7 19 21 30 15
12 22 21 17 21 -6 0 -22 -9 -37 -21z"/>
<path d="M6342 6109 c2 -7 10 -15 17 -17 8 -3 12 1 9 9 -2 7 -10 15 -17 17 -8
3 -12 -1 -9 -9z"/>
<path d="M4335 6080 c-3 -5 -1 -10 4 -10 6 0 11 5 11 10 0 6 -2 10 -4 10 -3 0
-8 -4 -11 -10z"/>
<path d="M4378 6066 c-4 -17 -1 -23 9 -19 15 6 18 29 4 37 -5 3 -11 -5 -13
-18z"/>
<path d="M4505 6000 c-16 -7 -17 -9 -3 -9 9 -1 20 4 23 9 7 11 7 11 -20 0z"/>
<path d="M4560 5981 c0 -4 -11 -6 -25 -3 -19 3 -32 -3 -50 -22 -16 -17 -19
-26 -10 -26 7 0 17 -9 20 -20 9 -29 38 -25 68 10 18 20 22 30 13 30 -9 0 -12
7 -9 20 3 11 3 20 -1 20 -3 0 -6 -4 -6 -9z"/>
<path d="M6150 5959 c0 -15 6 -32 14 -38 8 -7 18 -26 21 -42 8 -36 24 -47 40
-26 7 10 17 17 24 17 6 0 11 7 11 15 0 27 -30 75 -46 75 -8 0 -17 6 -20 14 -3
8 -14 14 -25 13 -14 -1 -19 -9 -19 -28z"/>
<path d="M6437 5951 c2 -9 -5 -25 -16 -35 -13 -12 -21 -31 -21 -50 0 -30 0
-30 16 -8 8 12 22 22 30 22 19 0 20 76 0 83 -9 4 -12 0 -9 -12z"/>
<path d="M4495 5860 c-3 -5 -1 -10 4 -10 6 0 11 5 11 10 0 6 -2 10 -4 10 -3 0
-8 -4 -11 -10z"/>
<path d="M5715 5851 c6 -10 2 -12 -13 -7 -11 4 -23 2 -27 -3 -3 -6 0 -8 8 -5
8 3 18 1 22 -5 3 -6 10 -11 15 -11 10 0 7 27 -5 37 -4 4 -5 2 0 -6z"/>
<path d="M5781 5844 c0 -11 3 -14 6 -6 3 7 2 16 -1 19 -3 4 -6 -2 -5 -13z"/>
<path d="M6236 5845 c-3 -9 -19 -21 -36 -26 -42 -15 -39 -36 5 -33 19 2 37 -1
40 -7 4 -5 11 -7 16 -3 5 3 7 10 4 15 -4 5 -1 9 4 9 15 0 14 33 -1 48 -16 16
-25 15 -32 -3z"/>
<path d="M5770 5749 c0 -5 5 -7 10 -4 6 3 10 8 10 11 0 2 -4 4 -10 4 -5 0 -10
-5 -10 -11z"/>
<path d="M6147 5734 c-15 -15 -6 -32 13 -27 12 3 19 10 17 16 -4 14 -21 19
-30 11z"/>
<path d="M5660 5693 c0 -10 5 -25 11 -33 9 -12 10 -12 5 4 -5 13 -2 17 9 12
10 -4 15 1 15 14 0 13 -7 20 -20 20 -12 0 -20 -7 -20 -17z"/>
<path d="M4616 5691 c-7 -11 22 -23 36 -15 6 4 5 10 -3 15 -18 11 -26 11 -33
0z"/>
<path d="M6482 5693 c-23 -9 -33 -41 -20 -65 7 -13 13 -24 14 -26 1 -1 9 0 18
4 27 10 16 96 -12 87z"/>
<path d="M6450 5580 c0 -5 5 -10 10 -10 6 0 10 5 10 10 0 6 -4 10 -10 10 -5 0
-10 -4 -10 -10z"/>
<path d="M4389 5534 c-12 -14 -11 -16 5 -13 11 2 21 10 24 17 5 17 -13 15 -29
-4z"/>
<path d="M6506 5523 c-6 -14 -5 -15 5 -6 7 7 10 15 7 18 -3 3 -9 -2 -12 -12z"/>
<path d="M4790 5500 c0 -5 5 -10 11 -10 5 0 7 5 4 10 -3 6 -8 10 -11 10 -2 0
-4 -4 -4 -10z"/>
<path d="M4777 5473 c-14 -13 -7 -81 9 -87 13 -5 14 1 8 42 -7 53 -8 55 -17
45z"/>
<path d="M4590 5425 c0 -8 5 -15 10 -15 6 0 10 7 10 15 0 8 -4 15 -10 15 -5 0
-10 -7 -10 -15z"/>
<path d="M4660 5361 c-7 -11 -18 -17 -23 -14 -6 3 -7 1 -3 -5 4 -6 14 -9 24
-6 15 5 15 4 2 -8 -29 -26 -48 -72 -39 -95 5 -13 11 -23 13 -23 3 0 3 6 0 14
-3 8 -1 17 5 21 7 3 11 -3 11 -15 0 -19 4 -21 26 -16 24 6 26 5 21 -15 -5 -19
-4 -20 8 -8 10 10 11 25 5 59 -4 25 -6 48 -4 52 3 5 0 8 -5 8 -6 0 -11 7 -11
15 0 8 5 15 10 15 6 0 10 5 10 11 0 6 -9 8 -20 4 -15 -5 -18 -3 -14 9 8 22 1
20 -16 -3z"/>
<path d="M4580 5350 c0 -5 5 -10 11 -10 5 0 7 5 4 10 -3 6 -8 10 -11 10 -2 0
-4 -4 -4 -10z"/>
<path d="M6206 5348 c5 -7 3 -8 -5 -4 -7 5 -18 0 -26 -10 -20 -27 -18 -33 8
-29 36 8 59 55 26 55 -6 0 -7 -5 -3 -12z"/>
<path d="M4410 5329 c0 -5 5 -7 10 -4 6 3 10 8 10 11 0 2 -4 4 -10 4 -5 0 -10
-5 -10 -11z"/>
<path d="M4360 5235 c0 -8 7 -15 15 -15 8 0 15 7 15 15 0 8 -7 15 -15 15 -8 0
-15 -7 -15 -15z"/>
<path d="M4680 5151 c0 -6 4 -13 10 -16 6 -3 7 1 4 9 -7 18 -14 21 -14 7z"/>
<path d="M4320 5086 c0 -9 5 -16 10 -16 6 0 10 4 10 9 0 6 -4 13 -10 16 -5 3
-10 -1 -10 -9z"/>
<path d="M4360 5060 c0 -5 5 -10 10 -10 6 0 10 5 10 10 0 6 -4 10 -10 10 -5 0
-10 -4 -10 -10z"/>
<path d="M4465 5060 c-3 -5 -1 -10 4 -10 6 0 11 5 11 10 0 6 -2 10 -4 10 -3 0
-8 -4 -11 -10z"/>
<path d="M4515 5050 c-3 -5 -1 -10 4 -10 6 0 11 5 11 10 0 6 -2 10 -4 10 -3 0
-8 -4 -11 -10z"/>
<path d="M4383 5003 c-18 -7 -16 -23 2 -23 8 0 15 7 15 15 0 8 -1 15 -2 14 -2
0 -9 -3 -15 -6z"/>
<path d="M4555 4938 c-11 -10 -13 -18 -7 -18 8 0 11 -10 8 -26 -4 -19 -1 -24
8 -21 8 3 18 1 24 -5 6 -6 12 -6 16 1 4 6 0 11 -8 11 -9 0 -16 5 -16 11 0 6 6
9 14 6 13 -5 25 19 26 49 0 18 -44 12 -65 -8z"/>
<path d="M4636 4881 c-3 -5 1 -12 10 -15 20 -8 29 -1 19 13 -8 13 -22 14 -29
2z"/>
<path d="M4556 4847 c3 -10 9 -15 12 -12 3 3 0 11 -7 18 -10 9 -11 8 -5 -6z"/>
<path d="M4490 4840 c0 -5 5 -10 10 -10 6 0 10 5 10 10 0 6 -4 10 -10 10 -5 0
-10 -4 -10 -10z"/>
<path d="M4787 4673 c-4 -3 -7 -11 -7 -17 0 -6 5 -5 12 2 6 6 9 14 7 17 -3 3
-9 2 -12 -2z"/>
<path d="M4565 4630 c-3 -5 -1 -10 4 -10 6 0 11 5 11 10 0 6 -2 10 -4 10 -3 0
-8 -4 -11 -10z"/>
<path d="M4592 4620 c-15 -25 -16 -60 -1 -60 6 0 9 7 6 15 -4 8 -2 17 4 20 5
4 12 -1 15 -10 5 -11 10 -13 19 -5 7 6 17 9 23 8 5 -2 11 2 12 7 0 6 -7 12
-17 14 -10 1 -25 9 -33 17 -13 11 -17 10 -28 -6z"/>
<path d="M4683 4632 c-8 -5 -8 -12 3 -26 13 -19 14 -19 14 7 0 30 0 30 -17 19z"/>
<path d="M4679 4531 c9 -6 11 -16 7 -27 -6 -15 -4 -16 5 -7 14 14 5 43 -13 43
-10 0 -9 -3 1 -9z"/>
<path d="M4625 4466 c-5 -6 -10 -35 -10 -63 1 -36 -3 -53 -12 -53 -7 0 -19
-13 -28 -30 -14 -27 -14 -30 0 -30 9 0 14 -4 10 -9 -7 -12 54 -11 78 1 11 5
17 5 17 -2 0 -5 4 -10 8 -10 5 0 9 34 10 76 2 66 0 75 -13 70 -12 -4 -15 0
-13 16 2 14 -2 23 -10 23 -7 0 -16 5 -20 11 -5 9 -10 9 -17 0z"/>
<path d="M4570 4360 c0 -5 5 -10 10 -10 6 0 10 5 10 10 0 6 -4 10 -10 10 -5 0
-10 -4 -10 -10z"/>
<path d="M4616 4242 c-17 -4 -52 -30 -44 -33 15 -6 48 -4 48 2 0 11 22 7 33
-6 6 -6 10 -6 14 3 2 6 11 12 19 12 9 0 12 5 9 10 -4 6 -16 8 -27 4 -11 -3
-23 -2 -27 3 -3 5 -15 7 -25 5z"/>
<path d="M4606 4163 c6 -52 14 -59 35 -32 l19 24 0 -24 c0 -20 2 -21 15 -11
16 13 21 35 6 26 -5 -4 -7 2 -4 13 4 14 -4 20 -36 28 l-40 11 5 -35z"/>
<path d="M4571 4128 c-1 -36 23 -58 60 -54 38 4 46 12 19 21 -13 4 -25 3 -29
-3 -9 -16 -38 10 -44 38 -4 25 -4 25 -6 -2z"/>
<path d="M4412 4088 c-16 -16 3 -48 29 -48 28 0 36 28 13 45 -23 18 -27 18
-42 3z"/>
<path d="M4652 4034 c-6 -11 -11 -13 -16 -5 -11 18 -25 13 -23 -9 1 -15 8 -20
29 -20 15 0 28 4 28 9 0 5 3 16 6 25 8 21 -12 21 -24 0z"/>
<path d="M4430 4012 c0 -22 13 -42 27 -42 21 0 12 44 -9 48 -10 2 -18 -1 -18
-6z"/>
<path d="M4587 3997 c-2 -7 4 -23 15 -37 18 -22 20 -22 36 -7 13 14 14 19 3
29 -10 11 -11 10 -6 -4 4 -11 2 -18 -4 -18 -6 0 -11 6 -11 14 0 21 -26 40 -33
23z"/>
<path d="M4635 3909 c6 -33 15 -36 15 -6 0 15 -4 27 -9 27 -6 0 -8 -10 -6 -21z"/>
<path d="M4536 3834 c-8 -21 -8 -21 10 -28 12 -4 15 -2 10 9 -3 8 -1 15 4 15
6 0 10 5 10 10 0 16 -27 11 -34 -6z"/>
<path d="M4335 3800 c3 -5 10 -10 16 -10 5 0 9 5 9 10 0 6 -7 10 -16 10 -8 0
-12 -4 -9 -10z"/>
<path d="M4620 3741 c0 -5 6 -12 13 -15 8 -3 5 -11 -11 -25 -13 -11 -22 -26
-20 -33 3 -7 -1 -24 -8 -37 -7 -14 -10 -29 -6 -35 6 -11 7 -14 10 -45 1 -9 11
-5 27 13 14 15 25 23 25 17 0 -5 -5 -13 -10 -16 -6 -4 -8 -15 -5 -26 5 -16 2
-18 -17 -15 -13 3 -27 5 -32 5 -4 1 -6 14 -4 31 3 17 -1 31 -7 34 -8 3 -10 -5
-7 -21 3 -14 1 -24 -4 -20 -5 3 -10 -19 -11 -49 -1 -30 2 -52 7 -49 5 3 7 12
4 19 -3 8 0 17 6 21 7 4 9 -4 5 -25 -5 -28 -3 -31 12 -26 16 6 16 6 -1 -13
-10 -10 -19 -28 -21 -38 -2 -10 -4 -18 -5 -18 -1 0 -3 -15 -6 -34 -2 -19 -11
-42 -20 -52 -14 -16 -14 -18 6 -24 16 -5 21 -13 18 -30 -4 -18 -1 -21 14 -17
10 2 18 -1 18 -7 0 -6 5 -11 11 -11 5 0 7 4 4 10 -3 5 -2 17 3 26 6 12 9 8 9
-15 0 -18 -6 -31 -13 -31 -7 0 -16 -5 -20 -12 -5 -7 -3 -8 7 -3 12 8 12 6 0
-8 -7 -9 -10 -17 -6 -17 4 0 2 -7 -5 -15 -7 -9 -19 -14 -27 -11 -17 7 -18 -30
0 -41 17 -11 46 -49 30 -39 -8 4 -13 2 -13 -4 0 -6 -4 -9 -9 -6 -5 4 -7 -3 -4
-15 5 -19 7 -19 15 -5 10 18 47 13 60 -8 4 -6 12 2 19 19 16 41 18 295 2 295
-19 0 -26 20 -11 37 20 25 20 124 0 141 -16 13 -16 13 1 8 17 -6 19 0 15 74
-2 44 0 80 3 80 3 0 6 21 7 48 2 36 -1 43 -9 32 -8 -11 -12 -12 -16 -2 -5 14
-23 16 -23 3z m20 -116 c0 -1 -9 -5 -20 -8 -12 -3 -20 0 -20 8 0 8 8 11 20 8
11 -3 20 -7 20 -8z m4 -164 c4 -5 -3 -7 -14 -4 -23 6 -26 13 -6 13 8 0 17 -4
20 -9z m-9 -41 c3 -5 -1 -10 -9 -10 -9 0 -16 5 -16 10 0 6 4 10 9 10 6 0 13
-4 16 -10z m-39 -9 c-4 -5 0 -12 6 -14 10 -4 10 -7 0 -15 -8 -5 -13 -12 -12
-16 0 -3 -4 -14 -10 -24 -9 -14 -10 -10 -6 17 3 18 6 40 6 47 0 8 5 14 11 14
5 0 8 -4 5 -9z m44 -21 c0 -5 -2 -10 -4 -10 -3 0 -8 5 -11 10 -3 6 -1 10 4 10
6 0 11 -4 11 -10z m-60 -91 c-7 -11 -14 -18 -17 -15 -3 3 0 12 7 21 18 21 23
19 10 -6z m20 -179 c0 -5 -5 -10 -11 -10 -5 0 -7 5 -4 10 3 6 8 10 11 10 2 0
4 -4 4 -10z m60 -31 c0 -5 -4 -9 -10 -9 -5 0 -10 7 -10 16 0 8 5 12 10 9 6 -3
10 -10 10 -16z m-46 -4 c4 -10 -1 -15 -14 -15 -13 0 -18 5 -14 15 4 8 10 15
14 15 4 0 10 -7 14 -15z m6 -45 c0 -5 -2 -10 -4 -10 -3 0 -8 5 -11 10 -3 6 -1
10 4 10 6 0 11 -4 11 -10z"/>
<path d="M4585 3730 c-3 -5 -1 -10 4 -10 6 0 11 5 11 10 0 6 -2 10 -4 10 -3 0
-8 -4 -11 -10z"/>
<path d="M4444 3156 c-8 -22 3 -33 18 -18 9 9 9 15 0 24 -9 9 -13 7 -18 -6z"/>
<path d="M4550 3060 c0 -5 5 -10 11 -10 5 0 7 5 4 10 -3 6 -8 10 -11 10 -2 0
-4 -4 -4 -10z"/>
<path d="M4571 2987 l-22 -24 25 4 c14 3 27 10 29 17 2 6 3 3 2 -6 -2 -9 2
-19 7 -20 6 -2 2 -10 -8 -18 -10 -8 -15 -10 -11 -3 4 6 3 14 -2 17 -5 3 -12
-1 -15 -9 -3 -9 1 -18 9 -21 19 -8 19 -33 1 -40 -8 -3 -17 -21 -20 -40 -4 -19
-12 -34 -19 -35 -7 0 -2 -5 11 -11 12 -6 22 -14 22 -18 0 -10 -52 -55 -73 -63
-9 -3 -17 -12 -17 -19 0 -10 2 -10 9 0 4 7 18 14 29 15 12 1 22 7 22 14 0 7
11 13 24 13 28 0 42 16 37 44 -2 13 2 17 12 13 7 -3 19 -2 26 2 18 11 -7 61
-31 61 -10 0 -18 5 -18 10 0 19 37 10 49 -12 11 -22 11 -22 8 4 -2 15 0 25 4
22 16 -9 4 33 -14 50 -22 23 -21 25 6 18 18 -4 20 -3 10 9 -6 8 -11 18 -10 23
1 5 -5 10 -13 12 -8 1 -22 5 -30 8 -10 4 -25 -3 -39 -17z"/>
<path d="M4544 2905 c-5 -13 -29 -25 -61 -31 -13 -2 -68 -41 -95 -66 -15 -15
-35 -22 -58 -20 -3 0 -6 -8 -6 -18 0 -17 2 -18 16 -5 9 8 22 15 29 15 6 0 24
12 38 26 25 25 103 66 120 64 5 -1 7 -8 5 -17 -2 -9 2 -13 10 -11 7 3 14 21
16 41 2 38 -4 48 -14 22z"/>
<path d="M4514 2557 c-17 -6 -36 -18 -42 -28 -11 -17 -9 -17 26 -2 20 8 42 19
47 23 6 4 19 10 30 13 16 4 15 5 -5 4 -14 0 -39 -4 -56 -10z"/>
<path d="M4624 2446 c-3 -8 -2 -22 3 -30 7 -12 10 -11 19 9 10 20 9 22 -4 17
-10 -3 -13 -1 -8 6 4 7 5 12 1 12 -3 0 -8 -6 -11 -14z"/>
<path d="M4370 2430 c0 -5 5 -10 11 -10 5 0 7 5 4 10 -3 6 -8 10 -11 10 -2 0
-4 -4 -4 -10z"/>
<path d="M4324 2409 c-3 -6 -2 -15 3 -20 5 -5 9 -1 9 11 0 23 -2 24 -12 9z"/>
<path d="M4705 2359 c-4 -6 -4 -13 -1 -16 3 -4 6 -1 6 5 0 7 5 12 10 12 15 0
12 -21 -7 -42 -9 -10 -11 -18 -5 -18 16 0 41 40 35 56 -6 17 -29 18 -38 3z"/>
<path d="M4510 2270 c0 -5 5 -10 10 -10 6 0 10 5 10 10 0 6 -4 10 -10 10 -5 0
-10 -4 -10 -10z"/>
<path d="M4601 2134 c0 -11 3 -14 6 -6 3 7 2 16 -1 19 -3 4 -6 -2 -5 -13z"/>
<path d="M4365 2103 c4 -16 7 -28 8 -28 1 -1 14 -6 30 -13 30 -13 34 -4 16 29
-5 11 -14 17 -20 14 -5 -4 -12 1 -15 9 -11 28 -27 18 -19 -11z"/>
<path d="M4620 2111 c0 -5 5 -13 10 -16 6 -3 10 -2 10 4 0 5 -4 13 -10 16 -5
3 -10 2 -10 -4z"/>
<path d="M4585 2050 c-10 -11 -26 -22 -37 -26 -12 -4 -17 -12 -13 -23 7 -22
-19 -46 -40 -37 -9 3 -15 0 -15 -9 0 -9 9 -15 23 -15 18 0 19 -2 7 -10 -12 -8
-11 -10 7 -10 12 0 25 5 29 11 3 6 15 9 25 6 14 -4 19 0 19 13 0 10 -4 20 -9
22 -5 2 -6 18 -4 36 5 30 7 31 19 15 12 -16 13 -15 14 15 0 38 -1 38 -25 12z"/>
<path d="M4620 2010 c0 -5 5 -10 11 -10 5 0 7 5 4 10 -3 6 -8 10 -11 10 -2 0
-4 -4 -4 -10z"/>
<path d="M4595 1990 c3 -5 8 -10 11 -10 2 0 4 5 4 10 0 6 -5 10 -11 10 -5 0
-7 -4 -4 -10z"/>
<path d="M4427 1868 c-2 -18 -1 -42 4 -53 4 -11 8 -14 8 -7 1 10 9 12 29 7 27
-6 28 -4 24 25 -3 21 -10 30 -23 30 -11 0 -19 7 -19 15 0 29 -18 15 -23 -17z"/>
<path d="M4500 1760 c-13 -8 -13 -10 2 -10 9 0 20 5 23 10 8 13 -5 13 -25 0z"/>
<path d="M4745 1730 c-3 -5 -1 -10 4 -10 6 0 11 5 11 10 0 6 -2 10 -4 10 -3 0
-8 -4 -11 -10z"/>
<path d="M4870 1720 c19 -13 30 -13 30 0 0 6 -10 10 -22 10 -19 0 -20 -2 -8
-10z"/>
<path d="M4766 1711 c-3 -4 6 -21 19 -37 29 -34 29 -31 10 -68 -8 -15 -12 -32
-9 -37 9 -15 22 -1 22 25 0 14 9 37 21 52 16 20 18 29 9 35 -7 4 -15 6 -19 3
-4 -2 -10 5 -14 16 -6 20 -29 27 -39 11z"/>
<path d="M4640 1685 c0 -9 6 -12 15 -9 8 4 15 10 15 15 0 5 -7 9 -15 9 -8 0
-15 -7 -15 -15z"/>
<path d="M4870 1599 c0 -5 5 -7 10 -4 6 3 10 8 10 11 0 2 -4 4 -10 4 -5 0 -10
-5 -10 -11z"/>
<path d="M4605 1590 c-3 -5 -1 -10 4 -10 6 0 11 5 11 10 0 6 -2 10 -4 10 -3 0
-8 -4 -11 -10z"/>
<path d="M4830 1575 c-7 -9 -11 -17 -9 -20 3 -2 10 5 17 15 14 24 10 26 -8 5z"/>
<path d="M3043 6593 c9 -2 25 -2 35 0 9 3 1 5 -18 5 -19 0 -27 -2 -17 -5z"/>
<path d="M3099 6235 c-5 -37 -3 -75 3 -75 4 0 14 -16 22 -35 9 -21 22 -35 32
-35 14 0 15 3 6 12 -7 7 -12 20 -12 30 0 10 -4 18 -10 18 -18 0 -10 22 10 27
11 3 20 10 20 15 0 5 -5 6 -12 2 -6 -4 -21 5 -35 22 -12 16 -23 25 -24 19z"/>
<path d="M2865 6220 c3 -5 10 -10 16 -10 5 0 9 5 9 10 0 6 -7 10 -16 10 -8 0
-12 -4 -9 -10z"/>
<path d="M2725 6199 c-4 -6 -18 -8 -31 -5 -14 4 -24 2 -24 -4 0 -6 5 -8 10 -5
6 3 10 1 10 -4 0 -6 -7 -11 -16 -11 -18 0 -14 -22 6 -28 7 -3 10 0 6 7 -12 19
8 12 38 -14 16 -14 33 -25 37 -25 4 0 14 -2 22 -5 7 -3 14 0 14 7 0 7 3 22 7
34 7 22 -10 44 -36 48 -7 1 -18 5 -25 9 -6 4 -15 2 -18 -4z"/>
<path d="M2905 6190 c3 -5 8 -10 11 -10 2 0 4 5 4 10 0 6 -5 10 -11 10 -5 0
-7 -4 -4 -10z"/>
<path d="M3372 6186 c-1 -11 -10 -28 -19 -39 -17 -19 -17 -20 0 -14 11 4 17 1
17 -9 0 -17 -20 -27 -61 -28 -27 -1 -29 -4 -27 -39 1 -22 4 -33 9 -25 6 9 13
9 33 -1 33 -18 51 -3 60 49 3 22 11 40 16 40 6 0 10 5 10 10 0 6 -6 10 -14 10
-9 0 -16 13 -19 33 -2 17 -5 23 -5 13z"/>
<path d="M2390 6180 c0 -5 5 -10 10 -10 6 0 10 5 10 10 0 6 -4 10 -10 10 -5 0
-10 -4 -10 -10z"/>
<path d="M3010 6160 c20 -13 33 -13 25 0 -3 6 -14 10 -23 10 -15 0 -15 -2 -2
-10z"/>
<path d="M3420 6121 c0 -6 5 -13 10 -16 6 -3 10 1 10 9 0 9 -4 16 -10 16 -5 0
-10 -4 -10 -9z"/>
<path d="M3256 6104 c-4 -9 -4 -19 -1 -22 2 -3 7 3 11 12 4 9 4 19 1 22 -2 3
-7 -3 -11 -12z"/>
<path d="M2760 6050 c0 -5 5 -10 11 -10 5 0 7 5 4 10 -3 6 -8 10 -11 10 -2 0
-4 -4 -4 -10z"/>
<path d="M3194 6029 c-8 -14 11 -33 25 -25 16 10 13 36 -3 36 -8 0 -18 -5 -22
-11z"/>
<path d="M3460 6019 c0 -11 4 -18 10 -14 5 3 7 12 3 20 -7 21 -13 19 -13 -6z"/>
<path d="M3465 5930 c3 -5 8 -10 11 -10 2 0 4 5 4 10 0 6 -5 10 -11 10 -5 0
-7 -4 -4 -10z"/>
<path d="M3099 5889 c-11 -7 -11 -9 4 -9 9 0 17 -4 17 -10 0 -5 5 -10 10 -10
15 0 12 27 -3 33 -8 3 -20 1 -28 -4z"/>
<path d="M1690 5855 c7 -8 16 -12 21 -9 13 8 1 24 -18 24 -13 0 -13 -3 -3 -15z"/>
<path d="M1570 5755 c0 -8 5 -15 10 -15 6 0 10 7 10 15 0 8 -4 15 -10 15 -5 0
-10 -7 -10 -15z"/>
<path d="M5635 5210 c3 -5 11 -10 16 -10 6 0 7 5 4 10 -3 6 -11 10 -16 10 -6
0 -7 -4 -4 -10z"/>
<path d="M3511 5074 c0 -11 3 -14 6 -6 3 7 2 16 -1 19 -3 4 -6 -2 -5 -13z"/>
<path d="M3517 4593 c-4 -3 -7 -11 -7 -17 0 -6 5 -5 12 2 6 6 9 14 7 17 -3 3
-9 2 -12 -2z"/>
<path d="M3486 4089 c-14 -17 -24 -34 -21 -39 3 -4 -2 -13 -10 -20 -8 -7 -12
-17 -8 -22 3 -6 14 -1 25 13 15 18 18 20 14 5 -5 -13 -2 -17 8 -13 10 4 13 1
9 -9 -3 -7 -9 -14 -15 -14 -5 0 -6 -5 -3 -10 4 -6 11 -8 16 -5 5 4 9 0 10 -7
0 -7 6 3 13 22 7 19 9 39 5 44 -4 5 -2 20 4 34 9 20 9 26 -2 30 -11 4 -11 6 0
13 11 7 11 9 -3 9 -9 0 -28 -14 -42 -31z m9 -19 c3 -5 1 -10 -4 -10 -6 0 -11
5 -11 10 0 6 2 10 4 10 3 0 8 -4 11 -10z"/>
<path d="M3483 3941 c4 -28 12 -34 14 -11 1 11 -2 22 -8 25 -5 4 -8 -3 -6 -14z"/>
<path d="M3525 3720 c-3 -5 -1 -10 4 -10 6 0 11 5 11 10 0 6 -2 10 -4 10 -3 0
-8 -4 -11 -10z"/>
<path d="M3486 3474 c-8 -21 -8 -24 3 -24 5 0 11 9 14 20 6 24 -8 27 -17 4z"/>
<path d="M3404 3417 c3 -10 6 -26 6 -35 0 -12 3 -13 11 -5 8 8 7 17 -6 35 -12
16 -16 18 -11 5z"/>
<path d="M3455 3342 c-14 -10 -18 -42 -5 -42 5 0 10 5 10 11 0 7 8 18 18 25
14 11 14 13 2 14 -8 0 -19 -4 -25 -8z"/>
<path d="M3430 3265 c0 -9 6 -18 14 -21 8 -3 12 -12 9 -20 -3 -8 0 -14 6 -14
15 0 14 43 -1 58 -16 16 -28 15 -28 -3z"/>
<path d="M3420 3220 c0 -5 5 -10 11 -10 5 0 7 5 4 10 -3 6 -8 10 -11 10 -2 0
-4 -4 -4 -10z"/>
<path d="M3480 3215 c0 -9 7 -23 15 -31 8 -9 15 -11 15 -5 0 5 -5 13 -10 16
-6 4 -8 10 -5 15 3 5 1 11 -5 15 -5 3 -10 -1 -10 -10z"/>
<path d="M3422 3170 c0 -14 2 -19 5 -12 2 6 2 18 0 25 -3 6 -5 1 -5 -13z"/>
<path d="M3450 3170 c-14 -26 -4 -92 17 -107 26 -20 32 -16 35 25 6 68 -29
124 -52 82z m30 -71 c0 -5 -4 -9 -10 -9 -5 0 -10 7 -10 16 0 8 5 12 10 9 6 -3
10 -10 10 -16z"/>
<path d="M3440 2964 c0 -8 5 -12 10 -9 6 3 10 10 10 16 0 5 -4 9 -10 9 -5 0
-10 -7 -10 -16z"/>
<path d="M3392 2667 c-6 -6 -8 -24 -5 -40 4 -22 8 -25 19 -16 16 13 19 55 5
63 -5 3 -13 0 -19 -7z"/>
<path d="M3570 2620 c0 -5 5 -10 10 -10 6 0 10 5 10 10 0 6 -4 10 -10 10 -5 0
-10 -4 -10 -10z"/>
<path d="M3407 2573 c-2 -5 -1 -37 2 -73 5 -57 8 -62 18 -45 7 11 13 16 13 10
0 -5 7 0 15 11 10 15 22 20 40 17 20 -4 25 -1 25 16 0 14 -6 21 -20 21 -10 0
-23 6 -27 13 -7 11 -47 37 -57 37 -3 0 -7 -3 -9 -7z"/>
<path d="M3556 2495 c-3 -8 -1 -15 4 -15 6 0 10 7 10 15 0 8 -2 15 -4 15 -2 0
-6 -7 -10 -15z"/>
<path d="M3487 2463 c-12 -12 -7 -22 8 -17 8 4 15 10 15 15 0 11 -14 12 -23 2z"/>
<path d="M6335 3680 c3 -5 8 -10 11 -10 2 0 4 5 4 10 0 6 -5 10 -11 10 -5 0
-7 -4 -4 -10z"/>
<path d="M6302 3646 c17 -19 48 -16 48 5 0 8 -4 8 -15 -1 -12 -10 -18 -10 -32
1 -17 12 -17 12 -1 -5z"/>
<path d="M3220 1750 c0 -5 7 -10 15 -10 8 0 15 5 15 10 0 6 -7 10 -15 10 -8 0
-15 -4 -15 -10z"/>
<path d="M3270 1690 c0 -5 5 -10 11 -10 5 0 7 5 4 10 -3 6 -8 10 -11 10 -2 0
-4 -4 -4 -10z"/>
<path d="M3330 1660 c0 -5 5 -10 10 -10 6 0 10 5 10 10 0 6 -4 10 -10 10 -5 0
-10 -4 -10 -10z"/>
<path d="M3330 1580 c0 -5 5 -10 11 -10 5 0 7 5 4 10 -3 6 -8 10 -11 10 -2 0
-4 -4 -4 -10z"/>
<path d="M3158 1453 c7 -3 16 -2 19 1 4 3 -2 6 -13 5 -11 0 -14 -3 -6 -6z"/>
<path d="M3746 1323 c-9 -21 -75 -44 -96 -33 -28 15 -40 12 -40 -11 0 -11 -4
-18 -8 -15 -5 3 -9 -2 -9 -10 0 -8 6 -13 14 -10 7 3 13 1 13 -4 0 -5 7 -7 17
-3 13 5 15 2 11 -15 -7 -26 17 -51 26 -27 3 9 10 14 15 11 16 -10 39 5 45 30
4 13 13 24 21 24 8 0 15 7 15 16 0 12 6 15 21 11 15 -4 19 -2 15 8 -3 9 0 12
10 8 18 -7 18 4 1 22 -17 16 -65 15 -71 -2z m-86 -47 c0 -3 -4 -8 -10 -11 -5
-3 -10 -1 -10 4 0 6 5 11 10 11 6 0 10 -2 10 -4z"/>
<path d="M3470 1321 c0 -5 5 -13 10 -16 6 -3 10 -2 10 4 0 5 -4 13 -10 16 -5
3 -10 2 -10 -4z"/>
<path d="M3370 1290 c0 -5 5 -10 10 -10 6 0 10 5 10 10 0 6 -4 10 -10 10 -5 0
-10 -4 -10 -10z"/>
<path d="M3520 1270 c0 -5 5 -10 11 -10 5 0 7 5 4 10 -3 6 -8 10 -11 10 -2 0
-4 -4 -4 -10z"/>
<path d="M3815 1250 c-3 -6 1 -7 9 -4 18 7 21 14 7 14 -6 0 -13 -4 -16 -10z"/>
<path d="M3620 1180 c0 -5 5 -10 10 -10 6 0 10 5 10 10 0 6 -4 10 -10 10 -5 0
-10 -4 -10 -10z"/>
</g>
</svg>
